<svg xmlns="http://www.w3.org/2000/svg" width="278" height="417" viewBox="0 0 278 417"><g><g><path fill="#27a7fc" d="M278 366.284c0 27.615-22.386 50-50 50H50.5c-27.614 0-50-22.385-50-50V50.034c0-27.613 22.386-50 50-50H228c27.614 0 50 22.387 50 50z"/></g><g><path fill="#fff" d="M161.455 381.536c-15.578 6.543-33.51-.783-40.052-16.361L37.49 165.36C17.42 117.569 39.971 62.356 87.764 42.286c47.793-20.072 103.004 2.48 123.076 50.274 6.543 15.58-.783 33.514-16.36 40.054-15.58 6.544-33.513-.782-40.055-16.361-7.008-16.687-26.283-24.559-42.969-17.551-16.686 7.005-24.559 26.281-17.552 42.969l83.915 199.811c6.542 15.578-.784 33.512-16.364 40.054z"/></g><g><path fill="none" stroke="#f83f1d" stroke-miterlimit="20" stroke-width="20" d="M48.487 170.679l57.415 19.188"/></g><g><path fill="none" stroke="#f83f1d" stroke-miterlimit="20" stroke-width="20" d="M113.387 324.781l57.414 19.187"/></g><g><path fill="none" stroke="#f83f1d" stroke-miterlimit="20" stroke-width="20" d="M80.653 247.745l57.414 19.187"/></g></g></svg>