<svg xmlns="http://www.w3.org/2000/svg" width="278" height="418" viewBox="0 0 278 418"><g><g><path fill="#27a7fc" d="M139.298 417.33C62.67 417.33.548 355.342.548 278.871V139.289C.548 62.82 62.67.83 139.298.83c76.63 0 138.75 61.99 138.75 138.459v139.582c0 76.471-62.12 138.459-138.75 138.459z"/></g><g><path fill="#fff" d="M241.035 209.08L139.298 393.572 37.562 209.08z"/></g><g><path fill="none" stroke="#fff" stroke-miterlimit="20" stroke-width="15" d="M105.431 107.822l-54.435 81.854"/></g><g><path fill="none" stroke="#fff" stroke-miterlimit="20" stroke-width="15" d="M103.665 60.21l-20.95 31.503"/></g><g><path fill="none" stroke="#fff" stroke-miterlimit="20" stroke-width="15" d="M36.547 89.713l36.042 28.219"/></g><g><path fill="none" stroke="#fff" stroke-miterlimit="20" stroke-width="15" d="M173.166 107.822l54.435 81.854"/></g><g><path fill="none" stroke="#fff" stroke-miterlimit="20" stroke-width="15" d="M174.932 60.21l20.95 31.503"/></g><g><path fill="none" stroke="#fff" stroke-miterlimit="20" stroke-width="15" d="M242.05 89.713l-36.042 28.219"/></g></g></svg>