<svg xmlns="http://www.w3.org/2000/svg" width="278" height="417" viewBox="0 0 278 417"><g><g><path fill="#27a7fc" d="M277.5 367.058c0 27.615-22.386 50-50 50H50c-27.614 0-50-22.385-50-50V50.808c0-27.613 22.386-50 50-50h177.5c27.614 0 50 22.387 50 50z"/></g><g><path fill="#fff" d="M189.287 93.555c0 27.91-22.626 50.537-50.538 50.537-27.91 0-50.536-22.627-50.536-50.537 0-27.912 22.626-50.539 50.536-50.539 27.912 0 50.538 22.627 50.538 50.54z"/></g><g><path fill="#fff" d="M20.348 181.612c0-20.807 16.869-37.678 37.677-37.678h161.45c20.809 0 37.678 16.871 37.678 37.678 0 20.811-16.87 37.678-37.678 37.678H58.025c-20.808 0-37.677-16.867-37.677-37.678z"/></g><g><path fill="#fff" d="M101.572 183.15c20.808 0 37.678 16.868 37.678 37.677v114.96c0 20.807-16.87 37.676-37.678 37.676-20.81 0-37.677-16.869-37.677-37.677V220.827c0-20.809 16.867-37.678 37.677-37.678z"/></g><g><path fill="#fff" d="M175.927 183.15c20.808 0 37.678 16.868 37.678 37.677v114.96c0 20.807-16.87 37.676-37.678 37.676-20.81 0-37.677-16.869-37.677-37.677V220.827c0-20.809 16.867-37.678 37.677-37.678z"/></g><g><path fill="none" stroke="#f83f1d" stroke-miterlimit="20" stroke-width="20" d="M103 137.558h71.5"/></g><g><path fill="none" stroke="#f83f1d" stroke-miterlimit="20" stroke-width="20" d="M212.008 185.612l-28.296-28.295"/></g></g></svg>