<svg xmlns="http://www.w3.org/2000/svg" width="576" height="278" viewBox="0 0 576 278"><g><g><path fill="#27a7fc" d="M50 277.855c-27.613 0-50-22.386-50-50v-177.5c0-27.614 22.387-50 50-50h475.75c27.614 0 50 22.386 50 50v177.5c0 27.614-22.386 50-50 50z"/></g><g><path fill="none" stroke="#f83f1d" stroke-miterlimit="20" stroke-width="20" d="M272.811 23.05l46.764 36.562"/></g><g><path fill="#fff" d="M392.56 150.476c0 57.814-46.869 104.683-104.685 104.683-57.815 0-104.683-46.869-104.683-104.683 0-57.816 46.868-104.685 104.683-104.685 57.816 0 104.684 46.87 104.684 104.685z"/></g><g><path fill="#27a7fc" d="M353.29 127.86c0 36.127-29.288 65.413-65.414 65.413-36.127 0-65.414-29.286-65.414-65.413 0-36.127 29.287-65.413 65.414-65.413 36.126 0 65.414 29.286 65.414 65.413z"/></g><g><path fill="#fff" d="M353.29 170.983c0 29.08-29.288 52.654-65.414 52.654-36.127 0-65.414-23.574-65.414-52.654 0-29.08 29.287-52.654 65.414-52.654 36.126 0 65.414 23.574 65.414 52.654z"/></g><g><path fill="#1a3771" d="M272.397 94.972c0 3.589-2.911 6.5-6.5 6.5a6.502 6.502 0 0 1-6.5-6.5 6.5 6.5 0 0 1 13 0z"/></g><g><path fill="#1a3771" d="M312.226 94.972a6.502 6.502 0 0 1-13.001 0c0-3.588 2.913-6.5 6.5-6.5 3.589 0 6.5 2.912 6.5 6.5z"/></g></g></svg>