<svg xmlns="http://www.w3.org/2000/svg" width="278" height="417" viewBox="0 0 278 417"><g><g><path fill="#27a7fc" d="M138.92 416.185C62.29 416.185.17 354.231.17 277.81v-139.5C.17 61.888 62.29-.065 138.92-.065S277.67 61.888 277.67 138.31v139.5c0 76.422-62.12 138.375-138.75 138.375z"/></g><g><path fill="#fff" d="M139.92 46.453c-40.98 0-74.2 33.222-74.2 74.2h148.4c0-40.978-33.22-74.2-74.2-74.2z"/></g><g><path fill="#fff" d="M139.92 120.653c-49.264 0-89.2 39.938-89.2 89.2h178.4c0-49.262-39.936-89.2-89.2-89.2z"/></g><g><path fill="#fff" d="M139.92 209.853c-60.31 0-109.2 48.892-109.2 109.2h218.4c0-60.308-48.89-109.2-109.2-109.2z"/></g></g></svg>