<svg xmlns="http://www.w3.org/2000/svg" width="279" height="278" viewBox="0 0 279 278"><g><g><path fill="#27a7fc" d="M278.08 228.034c0 27.613-22.387 50-50 50H50.58c-27.615 0-50-22.387-50-50v-177.5c0-27.615 22.385-50 50-50h177.5c27.613 0 50 22.385 50 50z"/></g><g><path fill="#f83f1d" d="M63.487 241.8L139.33 63.757 215.171 241.8z"/></g><g><path fill="#fff" d="M158.374 44.712c0 10.52-8.527 19.045-19.045 19.045-10.518 0-19.045-8.525-19.045-19.045 0-10.52 8.527-19.045 19.045-19.045 10.518 0 19.045 8.525 19.045 19.045z"/></g></g></svg>