<svg xmlns="http://www.w3.org/2000/svg" width="278" height="417" viewBox="0 0 278 417"><g><g><path fill="#27a7fc" d="M139.25 416.433C62.621 416.433.5 354.481.5 278.058V138.56C.5 62.136 62.621.185 139.25.185 215.88.185 278 62.135 278 138.56v139.498c0 76.424-62.12 138.375-138.75 138.375z"/></g><g><path fill="#fff" d="M248.45 273.102c0 60.311-48.891 109.201-109.2 109.201-60.31 0-109.201-48.89-109.201-109.2s48.89-109.2 109.2-109.2 109.2 48.89 109.2 109.2z"/></g><g><path fill="#fff" d="M193.299 110.213c0 29.852-24.2 54.05-54.05 54.05-29.851 0-54.05-24.198-54.05-54.05 0-29.853 24.199-54.051 54.05-54.051 29.85 0 54.05 24.198 54.05 54.05z"/></g></g></svg>