<svg xmlns="http://www.w3.org/2000/svg" width="278" height="417" viewBox="0 0 278 417"><g><g><path fill="#27a7fc" d="M277.5 366.933c0 27.613-22.386 50-50 50H50c-27.614 0-50-22.387-50-50V50.683c0-27.613 22.386-50 50-50h177.5c27.614 0 50 22.387 50 50z"/></g><g><path fill="none" stroke="#fff" stroke-miterlimit="20" stroke-width="14" d="M138.75 24.815v367.987"/></g><g><path fill="none" stroke="#fff" stroke-miterlimit="20" stroke-width="14" d="M258.599 208.808H18.902"/></g><g><path fill="#fff" d="M142.25 318.009h-7c0-58.283-47.417-105.7-105.7-105.7v-7c58.283 0 105.7-47.417 105.7-105.7h7c0 58.283 47.417 105.7 105.7 105.7v7c-58.283 0-105.7 47.417-105.7 105.7z"/></g></g></svg>