<svg xmlns="http://www.w3.org/2000/svg" width="278" height="417" viewBox="0 0 278 417"><g><g><path fill="#2a81e2" d="M277.5 366.433c0 27.615-22.386 50-50 50H50c-27.614 0-50-22.385-50-50V50.185c0-27.613 22.386-50 50-50h177.5c27.614 0 50 22.387 50 50z"/></g><g><path fill="none" stroke="#fff" stroke-miterlimit="20" stroke-width="14" d="M80.063 24.388v153.829"/></g><g><path fill="#fff" d="M140.658 70.717h-1.476c0-12.275-9.986-22.263-22.262-22.263V46.98c12.276 0 22.262-9.988 22.262-22.263h1.476c0 12.275 9.986 22.263 22.262 22.263v1.474c-12.276 0-22.262 9.988-22.262 22.263z"/></g><g><path fill="#fff" d="M81.731 153.303h-3.336c0-27.753-22.577-50.333-50.333-50.333v-3.334c27.756 0 50.333-22.58 50.333-50.333h3.336c0 27.753 22.578 50.333 50.331 50.333v3.334c-27.753 0-50.33 22.58-50.33 50.333z"/></g></g></svg>