<svg xmlns="http://www.w3.org/2000/svg" width="577" height="278" viewBox="0 0 577 278"><g><g><path fill="#27a7fc" d="M576.41 139.284c0 76.63-62.12 138.75-138.75 138.75H139.41c-76.63 0-138.75-62.12-138.75-138.75C.66 62.655 62.78.534 139.41.534h298.25c76.63 0 138.75 62.121 138.75 138.75z"/></g><g><path fill="none" stroke="#fff" stroke-miterlimit="20" stroke-width="15" d="M155.3 23.53v127.124"/></g><g><path fill="none" stroke="#1a3771" stroke-miterlimit="20" stroke-width="15" d="M155.3 244.186v-44.433"/></g><g><path fill="none" stroke="#1a3771" stroke-miterlimit="20" stroke-width="15" d="M209.298 23.53v95.458"/></g><g><path fill="none" stroke="#1a3771" stroke-miterlimit="20" stroke-width="15" d="M399.79 23.53v115.754"/></g><g><path fill="none" stroke="#fff" stroke-miterlimit="20" stroke-width="15" d="M399.79 221.97v-50.808"/></g><g><path fill="none" stroke="#fff" stroke-miterlimit="20" stroke-width="15" d="M426.788 23.53v56.854"/></g><g><path fill="none" stroke="#fff" stroke-miterlimit="20" stroke-width="15" d="M426.788 137.49v33.672"/></g><g><path fill="none" stroke="#fff" stroke-miterlimit="20" stroke-width="15" d="M514.009 95.151v82.404"/></g><g><path fill="none" stroke="#fff" stroke-miterlimit="20" stroke-width="15" d="M350.469 23.53v33.675"/></g><g><path fill="none" stroke="#fff" stroke-miterlimit="20" stroke-width="15" d="M125.302 23.53v33.675"/></g><g><path fill="none" stroke="#fff" stroke-miterlimit="20" stroke-width="15" d="M45.981 122.448v33.672"/></g></g></svg>