<svg xmlns="http://www.w3.org/2000/svg" width="576" height="278" viewBox="0 0 576 278"><g><g><path fill="#27a7fc" d="M576 139.277c0 76.63-62.12 138.75-138.75 138.75H139c-76.63 0-138.75-62.12-138.75-138.75C.25 62.648 62.37.527 139 .527h298.25C513.88.527 576 62.648 576 139.277z"/></g><g><path fill="none" stroke="#fff" stroke-linecap="square" stroke-miterlimit="20" stroke-width="15" d="M288.553 25.955v226"/></g><g><path fill="none" stroke="#fff" stroke-linecap="square" stroke-miterlimit="20" stroke-width="15" d="M257.318 63.553l62.471 150.805"/></g><g><path fill="none" stroke="#fff" stroke-linecap="square" stroke-miterlimit="20" stroke-width="15" d="M213.151 107.72l150.805 62.47"/></g><g><path fill="none" stroke="#fff" stroke-linecap="square" stroke-miterlimit="20" stroke-width="15" d="M213.151 170.19l150.805-62.473"/></g><g><path fill="none" stroke="#fff" stroke-linecap="square" stroke-miterlimit="20" stroke-width="15" d="M257.318 214.356l62.47-150.805"/></g><g><path fill="none" stroke="#fff" stroke-linecap="square" stroke-miterlimit="20" stroke-width="15" d="M401.553 138.956h-226"/></g><g><path fill="none" stroke="#fff" stroke-linecap="square" stroke-miterlimit="20" stroke-width="15" d="M368.455 59.053L208.65 218.858"/></g><g><path fill="none" stroke="#fff" stroke-linecap="square" stroke-miterlimit="20" stroke-width="15" d="M368.455 218.858L208.65 59.052"/></g></g></svg>