<svg xmlns="http://www.w3.org/2000/svg" width="278" height="577" viewBox="0 0 278 577"><g><g><path fill="#27a7fc" d="M138.75.714c76.629 0 138.75 62.12 138.75 138.75v298.25c0 76.63-62.121 138.75-138.75 138.75C62.121 576.464 0 514.344 0 437.714v-298.25C0 62.834 62.121.714 138.75.714z"/></g><g><path fill="none" stroke="#fff" stroke-miterlimit="20" stroke-width="15" d="M178.027 39.645l-22.309 48.368"/></g><g><path fill="#fff" d="M250.73 342.209l-82.618-237.086-127.4 45.133L118 371.969l-64.846 21.507c-26.09 9.044-39.91 37.527-30.866 63.618 7.165 20.67 26.528 33.638 47.24 33.637 5.431 0 10.957-.892 16.378-2.771l113.136-39.218c43.62-15.121 66.807-62.911 51.688-106.533z"/></g><g><path fill="none" stroke="#f83f1d" stroke-miterlimit="20" stroke-width="20" d="M102.318 165.406L44.96 185.288"/></g><g><path fill="none" stroke="#f83f1d" stroke-miterlimit="20" stroke-width="20" d="M191.532 334.134l-57.358 19.882"/></g><g><path fill="none" stroke="#f83f1d" stroke-miterlimit="20" stroke-width="20" d="M148.27 425.022l-14.097-40.667"/></g></g></svg>