<svg xmlns="http://www.w3.org/2000/svg" width="576" height="278" viewBox="0 0 576 278"><g><g><path fill="#2a81e2" d="M.25 138.91C.25 62.28 62.371.16 139 .16h298.25C513.879.16 576 62.28 576 138.91c0 76.628-62.121 138.75-138.75 138.75H139C62.371 277.66.25 215.537.25 138.91z"/></g><g><path fill="#fff" d="M158.453 138.91c0-34.52 27.98-62.5 62.5-62.5H355.3c34.517 0 62.498 27.98 62.498 62.5 0 34.517-27.98 62.5-62.498 62.5H220.953c-34.52 0-62.5-27.983-62.5-62.5z"/></g><g><path fill="#fff" d="M69.453 48.91v180c49.705 0 90-40.296 90-90 0-49.706-40.295-90-90-90z"/></g><g><path fill="#fff" d="M506.797 228.91v-180c-49.707 0-90 40.292-90 90 0 49.702 40.293 90 90 90z"/></g></g></svg>