<svg xmlns="http://www.w3.org/2000/svg" width="437" height="278" viewBox="0 0 437 278"><g><g><path fill="#2a81e2" d="M0 138.707C0 62.077 62.12-.043 138.75-.043H297.5c76.63 0 138.75 62.12 138.75 138.75s-62.12 138.75-138.75 138.75H138.75C62.12 277.457 0 215.337 0 138.707z"/></g><g><path fill="none" stroke="#fff" stroke-miterlimit="20" stroke-width="15" d="M99.438 229.847l33.694-11.488"/></g><g><path fill="none" stroke="#fff" stroke-miterlimit="20" stroke-width="15" d="M346.036 156.53l15.547-32.024"/></g><g><path fill="none" stroke="#1a3771" stroke-miterlimit="20" stroke-width="15" d="M390.65 172.194l-16.903-31.329"/></g><g><path fill="none" stroke="#fff" stroke-miterlimit="20" stroke-width="15" d="M328.656 71.663l34.76-7.68"/></g><g><path fill="none" stroke="#fff" stroke-miterlimit="20" stroke-width="15" d="M326.241 214l29.312 20.204"/></g><g><path fill="none" stroke="#1a3771" stroke-miterlimit="20" stroke-width="15" d="M310.4 251.776l-5.664-35.144"/></g><g><path fill="none" stroke="#1a3771" stroke-miterlimit="20" stroke-width="15" d="M56.675 127.525l30.422 18.484"/></g><g><path fill="none" stroke="#1a3771" stroke-miterlimit="20" stroke-width="15" d="M243.687 25.984l-31.536 16.517"/></g><g><path fill="none" stroke="#fff" stroke-miterlimit="20" stroke-width="15" d="M43.808 176.034l34.76-7.68"/></g></g></svg>