<svg xmlns="http://www.w3.org/2000/svg" width="576" height="278" viewBox="0 0 576 278"><g><g><path fill="#2a81e2" d="M50.25 277.464c-27.614 0-50-22.386-50-50v-177.5c0-27.614 22.386-50 50-50H526c27.614 0 50 22.386 50 50v177.5c0 27.614-22.386 50-50 50z"/></g><g><path fill="none" stroke="#fff" stroke-miterlimit="20" stroke-width="15" d="M360.572 41.075V24.18"/></g><g><path fill="none" stroke="#fff" stroke-miterlimit="20" stroke-width="15" d="M160.032 196.18v-16.896"/></g><g><path fill="none" stroke="#fff" stroke-miterlimit="20" stroke-width="15" d="M414.376 49.522V32.626"/></g><g><path fill="none" stroke="#fff" stroke-miterlimit="20" stroke-width="15" d="M463.376 41.075V24.18"/></g><g><path fill="none" stroke="#fff" stroke-miterlimit="20" stroke-width="15" d="M463.376 101.69V84.792"/></g><g><path fill="none" stroke="#fff" stroke-miterlimit="20" stroke-width="15" d="M444 242.022v-16.896"/></g><g><path fill="none" stroke="#fff" stroke-miterlimit="20" stroke-width="15" d="M390 167.303v-16.896"/></g><g><path fill="none" stroke="#fff" stroke-miterlimit="20" stroke-width="15" d="M483.066 147.162v-16.896"/></g><g><path fill="none" stroke="#fff" stroke-miterlimit="20" stroke-width="15" d="M525.677 93.241V76.345"/></g><g><path fill="none" stroke="#fff" stroke-miterlimit="20" stroke-width="15" d="M539 210.303v-16.896"/></g><g><path fill="none" stroke="#fff" stroke-miterlimit="20" stroke-width="15" d="M173.622 60.972V44.076"/></g><g><path fill="none" stroke="#fff" stroke-miterlimit="20" stroke-width="15" d="M346.572 59.972V43.076"/></g><g><path fill="none" stroke="#fff" stroke-miterlimit="20" stroke-width="15" d="M98 120.241v-16.896"/></g><g><path fill="none" stroke="#fff" stroke-miterlimit="20" stroke-width="15" d="M116.032 137.138v-16.896"/></g><g><path fill="none" stroke="#fff" stroke-miterlimit="20" stroke-width="15" d="M136.532 242.022v-16.896"/></g><g><path fill="none" stroke="#fff" stroke-miterlimit="20" stroke-width="15" d="M116.032 43.075V26.18"/></g><g><path fill="none" stroke="#fff" stroke-miterlimit="20" stroke-width="15" d="M41.532 81.355V64.46"/></g><g><path fill="none" stroke="#fff" stroke-miterlimit="20" stroke-width="15" d="M41.532 210.303v-16.896"/></g><g><path fill="none" stroke="#fff" stroke-miterlimit="20" stroke-width="15" d="M214.58 42.075V25.18"/></g></g></svg>