<svg xmlns="http://www.w3.org/2000/svg" width="278" height="417" viewBox="0 0 278 417"><g><g><path fill="#27a7fc" d="M139.25 416.73C62.621 416.73.5 354.78.5 278.355V138.857C.5 62.433 62.621.482 139.25.482 215.88.482 278 62.433 278 138.857v139.498c0 76.424-62.12 138.375-138.75 138.375z"/></g><g><path fill="#fff" d="M198.45 208.605c0 32.644-26.556 59.201-59.199 59.201-32.644 0-59.201-26.557-59.201-59.2 0-32.644 26.557-59.202 59.201-59.202 32.643 0 59.199 26.558 59.199 59.201zm-168.4 0c0 60.311 48.89 109.201 109.201 109.201 60.309 0 109.199-48.89 109.199-109.2 0-60.309-48.89-109.202-109.199-109.202-60.311 0-109.201 48.893-109.201 109.201z"/></g><g><path fill="none" stroke="#f83f1d" stroke-miterlimit="20" stroke-width="20" d="M151.135 135.773l35.926-35.928"/></g><g><path fill="none" stroke="#f83f1d" stroke-miterlimit="20" stroke-width="20" d="M127.367 135.773L91.44 99.847"/></g></g></svg>