<svg xmlns="http://www.w3.org/2000/svg" width="260" height="196" viewBox="0 0 260 196"><g><g><path fill="#fff" d="M240.866 163.019v19.624c0 .982-.101 1.643-.295 1.99-.185.346-.495.584-.928.718-.246.075-.902.118-1.974.132v1.549h9.506v-1.549h-.688c-.822 0-1.377-.079-1.663-.22a1.376 1.376 0 0 1-.641-.649c-.137-.284-.202-.868-.202-1.771v-2.42l3.006-2.304 4.912 5.644c.071.088.139.163.203.227.364.366.555.649.555.844 0 .203-.102.359-.297.472-.195.12-.675.177-1.423.177h-.759v1.549H260v-1.549c-.812-.014-1.409-.07-1.788-.177a3.667 3.667 0 0 1-1.15-.56c-.38-.27-.873-.737-1.469-1.406l-6.311-6.902 5.344-4.076c.826-.632 1.553-1.055 2.183-1.268.624-.214 1.458-.322 2.504-.322v-1.549h-9.353v1.549h.977c.58 0 .943.032 1.089.095.234.096.351.234.351.404 0 .286-.54.858-1.622 1.713l-6.774 5.393v-18.42h-1.424c-1.679.916-3.314 1.43-4.888 1.55v1.512zm-14.931 7.552c1.057 0 2.009.28 2.845.84.846.56 1.477 1.339 1.901 2.354.541 1.268.808 2.697.808 4.297 0 1.638-.25 3.061-.754 4.271-.51 1.217-1.166 2.097-1.984 2.651-.819.555-1.753.831-2.797.831-1.625 0-2.908-.591-3.861-1.776-1.049-1.329-1.57-3.254-1.57-5.793 0-2.634.617-4.637 1.848-6.017.978-1.102 2.158-1.658 3.564-1.658zm.143-1.788c-1.77 0-3.349.39-4.75 1.172a8.153 8.153 0 0 0-3.254 3.302c-.775 1.422-1.166 3.047-1.166 4.879 0 2.509.748 4.695 2.241 6.553 1.5 1.857 3.73 2.783 6.711 2.783 1.869 0 3.476-.376 4.825-1.132 1.347-.758 2.412-1.854 3.193-3.296.782-1.437 1.172-3.08 1.172-4.925 0-1.846-.379-3.489-1.146-4.926-.763-1.443-1.804-2.538-3.127-3.289-1.321-.749-2.889-1.121-4.699-1.121zm-18.821-5.832c-.247 1.588-.567 2.772-.959 3.559-.397.788-.904 1.429-1.544 1.92-.626.492-1.466.857-2.499 1.09v1.55h3.231v11.35c0 1.4.14 2.382.415 2.95.282.566.797 1.057 1.553 1.477.756.42 1.6.625 2.537.625 1.653 0 3.276-.546 4.887-1.637v-1.796c-1.408 1.046-2.701 1.57-3.873 1.57-.49 0-.938-.126-1.334-.385a2.127 2.127 0 0 1-.853-.997c-.171-.407-.252-1.08-.252-2.031V171.07h5.481v-1.847h-5.481v-6.272zm-12.511 7.381c-.709-.553-1.436-.949-2.178-1.191-.736-.237-1.573-.358-2.51-.358-1.791 0-3.274.471-4.438 1.43-1.16.951-1.738 2.049-1.738 3.296 0 1.02.352 1.919 1.065 2.706.715.79 1.99 1.514 3.824 2.18l4.265 1.549c1.253.443 2.102.901 2.543 1.37.428.478.643 1.007.643 1.588 0 .698-.342 1.332-1.034 1.907-.685.573-1.567.856-2.638.856-1.609 0-3.115-.523-4.5-1.569-1-.737-2.057-1.989-3.175-3.76l-1.681.661 2.306 6.035h1.31l.392-1.329c1.474 1.185 3.244 1.769 5.314 1.769 1.331 0 2.51-.245 3.536-.736 1.027-.491 1.808-1.154 2.349-1.982.539-.832.815-1.696.815-2.59 0-1.06-.369-2.01-1.093-2.847-.736-.819-2.122-1.601-4.151-2.326l-3.596-1.273c-1.469-.528-2.406-.999-2.824-1.418-.43-.408-.651-.894-.651-1.46 0-.605.301-1.134.893-1.594.585-.466 1.353-.693 2.305-.693 1.226 0 2.443.436 3.638 1.297 1.204.871 2.137 2.059 2.801 3.573l1.663-.555-1.663-5.645h-1.293zm-23.987.239c1.056 0 2.008.28 2.85.84.842.56 1.472 1.339 1.893 2.354.542 1.268.814 2.697.814 4.297 0 1.638-.254 3.061-.757 4.271-.508 1.217-1.163 2.097-1.983 2.651-.82.555-1.753.831-2.797.831-1.627 0-2.912-.591-3.861-1.776-1.047-1.329-1.57-3.254-1.57-5.793 0-2.634.617-4.637 1.846-6.017.976-1.102 2.16-1.658 3.565-1.658zm.146-1.788c-1.772 0-3.352.39-4.75 1.172a8.196 8.196 0 0 0-3.259 3.302c-.774 1.422-1.161 3.047-1.161 4.879 0 2.509.745 4.695 2.24 6.553 1.5 1.857 3.729 2.783 6.709 2.783 1.87 0 3.477-.376 4.824-1.132 1.35-.758 2.415-1.854 3.194-3.296.782-1.437 1.173-3.08 1.173-4.925 0-1.846-.38-3.489-1.148-4.926-.761-1.443-1.802-2.538-3.122-3.289-1.325-.749-2.892-1.121-4.7-1.121zm-37.109-5.928c.53 0 .939.039 1.233.121.296.081.553.202.771.357.214.163.407.373.578.632.113.169.309.616.594 1.329l8.652 21.738h2.623l8.743-21.738c.322-.788.61-1.348.868-1.683.208-.245.481-.433.81-.572.319-.133.826-.196 1.517-.184v-1.567h-7.99v1.567h.852c.763 0 1.265.082 1.508.241.25.164.37.422.37.773 0 .323-.12.795-.37 1.425l-6.903 17.827-6.827-17.827c-.245-.63-.374-1.11-.374-1.443a.93.93 0 0 1 .196-.56c.137-.163.324-.284.57-.36.167-.051.585-.076 1.253-.076h.716v-1.567h-9.39zm-19.508 24.6c.756.126 1.561.32 2.432.583.86.267 1.453.576 1.768.934.316.353.473.794.473 1.31a2.36 2.36 0 0 1-.571 1.568c-.52.561-1.382 1.029-2.578 1.394-1.198.357-2.63.543-4.311.543-1.414 0-2.587-.147-3.527-.443-.932-.295-1.591-.674-1.984-1.135-.383-.458-.58-.936-.58-1.43 0-.577.197-1.183.58-1.807.393-.628 1.18-1.449 2.357-2.457zm-3.007-16.959c1.294 0 2.344.423 3.163 1.265.821.84 1.229 1.944 1.229 3.296 0 .856-.191 1.63-.559 2.323a4.272 4.272 0 0 1-1.611 1.646 4.276 4.276 0 0 1-2.184.605c-.76 0-1.492-.202-2.177-.597a4.2 4.2 0 0 1-1.607-1.645c-.381-.695-.575-1.476-.575-2.332 0-1.292.423-2.373 1.261-3.25.833-.874 1.852-1.311 3.06-1.311zm5.608.184c-.869-.713-1.721-1.209-2.547-1.487-.825-.271-1.788-.41-2.894-.41-2.484 0-4.464.713-5.922 2.136-1.21 1.172-1.809 2.537-1.809 4.101 0 .943.225 1.814.68 2.606.453.793 1.136 1.514 2.028 2.156-.181.145-.497.372-.938.679-.701.492-1.186.877-1.448 1.154a2.819 2.819 0 0 0-.575.832 2.354 2.354 0 0 0-.176.893c0 .643.321 1.21.964 1.721.504.39 1.342.735 2.509 1.032-1.812 1.337-2.963 2.376-3.46 3.1-.498.725-.752 1.468-.752 2.229 0 .592.248 1.166.739 1.719.681.763 1.633 1.355 2.861 1.772 1.234.416 2.831.629 4.799.629 3.754 0 6.582-.624 8.49-1.863 1.5-.977 2.25-2.276 2.25-3.895 0-.961-.265-1.789-.799-2.475-.536-.684-1.399-1.248-2.595-1.682a19.455 19.455 0 0 0-3.559-.92l-5.334-.793c-1.383-.208-2.303-.466-2.767-.775-.372-.233-.556-.527-.556-.888 0-.232.083-.455.258-.661.11-.138.568-.494 1.38-1.071 1.222.503 2.432.755 3.641.755 2.173 0 3.977-.623 5.408-1.864 1.427-1.24 2.141-2.716 2.141-4.409 0-1.24-.389-2.325-1.148-3.251.334-.283.655-.421.956-.421.242 0 .529.042.87.126.296.062.531.094.707.094.416 0 .759-.138 1.032-.405.269-.269.403-.603.403-1 0-.378-.151-.699-.454-.964-.298-.264-.673-.397-1.116-.397-.48 0-1.006.153-1.573.461-.574.309-1.139.787-1.694 1.436zm-36.057 1.201v10.521c0 1.152-.04 1.832-.113 2.028-.134.39-.365.67-.7.819-.334.155-.951.234-1.864.234h-.461v1.549h9.508v-1.549h-.536c-.966 0-1.557-.064-1.775-.185a1.484 1.484 0 0 1-.696-.722c-.14-.317-.207-.958-.207-1.916v-8.509c1.055-.995 2.153-1.751 3.281-2.262 1.134-.51 2.196-.762 3.194-.762.838 0 1.532.162 2.078.503.55.341.932.782 1.16 1.323.226.542.34 1.514.34 2.918v6.789c0 .946-.07 1.574-.207 1.877-.146.31-.373.541-.694.707-.321.157-.925.239-1.808.239h-.519v1.549h9.508v-1.549c-1.21 0-1.966-.064-2.274-.185a1.266 1.266 0 0 1-.673-.602c-.141-.277-.207-.901-.207-1.872v-8.12c0-.926-.053-1.613-.152-2.067a4.515 4.515 0 0 0-.973-1.976c-.484-.573-1.113-1.035-1.887-1.374-.775-.341-1.67-.504-2.679-.504a8.925 8.925 0 0 0-3.495.727c-1.152.482-2.539 1.409-4.162 2.776v-3.503h-1.331c-1.02.56-1.801.933-2.345 1.103-.54.176-1.353.32-2.449.446v1.549zm-11.446 0v10.849c0 1.001-.056 1.634-.176 1.903a1.262 1.262 0 0 1-.6.63c-.283.141-.84.22-1.663.22h-.754v1.549h9.446v-1.549h-.862c-.706 0-1.183-.057-1.446-.177a1.27 1.27 0 0 1-.621-.56c-.149-.26-.225-.65-.225-1.167v-14.796h-1.342c-.891.479-1.681.826-2.374 1.052-.692.221-1.557.391-2.576.515v1.531zm1.514-11.426c-.589 0-1.091.208-1.514.62a2.033 2.033 0 0 0-.622 1.503c0 .592.206 1.096.622 1.51.423.425.925.631 1.514.631.59 0 1.092-.206 1.515-.631a2.05 2.05 0 0 0 .626-1.51c0-.592-.209-1.09-.626-1.503a2.093 2.093 0 0 0-1.515-.62zm-18.013 11.41v10.884c0 .851-.077 1.437-.231 1.762-.151.33-.389.583-.714.77-.233.132-.721.202-1.474.202h-.792v1.549h9.544v-1.549h-.611c-.68 0-1.156-.046-1.425-.132a1.508 1.508 0 0 1-.681-.417 1.715 1.715 0 0 1-.397-.68c-.082-.264-.118-.768-.118-1.505v-8.503c.529-.645 1.258-1.293 2.2-1.96.734-.518 1.408-.776 2.027-.776.455 0 1.022.22 1.695.67.309.205.54.34.706.4.155.064.342.096.565.096a1.74 1.74 0 0 0 1.264-.51c.354-.341.53-.731.53-1.17 0-.619-.264-1.142-.793-1.572-.527-.427-1.253-.641-2.159-.641-.926 0-1.965.308-3.12.939a10.16 10.16 0 0 0-3.047 2.545v-3.484h-1.382c-.901.517-1.701.89-2.399 1.113-.704.229-1.498.379-2.399.454v1.515zM41.059 182.42c-1.575 1.102-2.867 1.853-3.875 2.231-1.01.386-1.916.573-2.714.573a3.48 3.48 0 0 1-1.605-.39 2.856 2.856 0 0 1-1.175-1.06 2.606 2.606 0 0 1-.409-1.391c0-.478.117-.931.367-1.361.244-.422.659-.818 1.233-1.19.581-.366 1.542-.707 2.88-1.015.68-.156 2.443-.446 5.298-.862zm0-6.071c-3.012.316-5.369.673-7.068 1.072-1.697.389-2.941.843-3.735 1.361-.794.514-1.387 1.113-1.771 1.794a4.188 4.188 0 0 0-.585 2.134c0 1.248.527 2.331 1.587 3.251 1.056.927 2.438 1.387 4.136 1.387a9.767 9.767 0 0 0 3.618-.706c1.191-.468 2.527-1.28 4.005-2.433.109.65.354 1.217.736 1.688a3.61 3.61 0 0 0 1.468 1.078c.593.246 1.331.373 2.207.373.813 0 1.725-.153 2.746-.447v-1.603c-.788.274-1.463.405-2.029.405-.541 0-.982-.131-1.316-.397-.343-.265-.579-.659-.711-1.19-.062-.31-.096-.963-.096-1.974v-7.104c0-1.664-.183-2.809-.553-3.433-.53-.913-1.356-1.613-2.469-2.095-1.122-.486-2.471-.727-4.045-.727-1.689 0-3.15.252-4.386.762-1.234.511-2.152 1.16-2.755 1.94-.601.782-.902 1.574-.902 2.39 0 .553.15.993.448 1.323.299.318.697.483 1.188.483.863 0 1.438-.555 1.72-1.657.232-.914.379-1.437.443-1.567.15-.373.374-.7.691-.99.313-.29.73-.517 1.246-.687.519-.164 1.122-.245 1.81-.245 1.395 0 2.468.291 3.229.876.765.585 1.143 1.559 1.143 2.92zm-29.373-1.807c2.736 0 4.649.177 5.724.541 1.076.366 1.921.951 2.533 1.769.602.819.911 1.757.911 2.817 0 1.252-.378 2.33-1.126 3.219-.749.894-1.656 1.479-2.721 1.759-1.064.274-2.84.414-5.321.414H9.17c-.969 0-1.562-.032-1.769-.096-.295-.087-.492-.238-.591-.458-.07-.165-.11-.669-.11-1.519v-8.446zm.66-11.209c2.092 0 3.472.081 4.13.241 1.023.259 1.841.743 2.454 1.448.603.712.91 1.595.91 2.652 0 1.255-.337 2.281-1.006 3.08-.675.803-1.639 1.369-2.912 1.703-.802.208-2.318.307-4.516.307H6.7v-9.431zM0 162.855h.869c.775 0 1.295.07 1.565.202.274.138.476.357.615.668.13.308.201.876.201 1.715v17.883c0 .823-.223 1.415-.669 1.771-.309.257-.876.389-1.712.389H0v1.549h12.898c1.552 0 3.056-.088 4.525-.265 1.461-.181 2.745-.593 3.851-1.228 1.094-.641 1.951-1.46 2.549-2.456a6.14 6.14 0 0 0 .906-3.251c0-1.203-.307-2.288-.924-3.245-.611-.961-1.451-1.698-2.508-2.216-.699-.34-1.72-.637-3.063-.883 1.058-.27 1.891-.599 2.507-.981.958-.588 1.696-1.299 2.199-2.13.505-.832.758-1.771.758-2.818 0-1.446-.481-2.694-1.432-3.726-.957-1.033-2.247-1.748-3.886-2.138-1.109-.27-3.156-.407-6.14-.407H0z"/></g><g><path fill="#fff" d="M187.122 137.418c1.111 0 7.184-.624 7.187-1.772-.31-.153-.404 0-.728 0-3.295 0-6.49-.163-9.793-.415a26.514 26.514 0 0 1-3.96-.628 81.242 81.242 0 0 0-1.562-.312c-.176 0-.392-.036-.52.107-.005 1.176 7.778 3.02 9.376 3.02zm-97.935-20.733c.486-.653.728-.861.728-1.146 0-.473-.35-.833-.728-.833-.377 0-1.384.644-2.082 1.46l-.519.624-.629.624c-.095.096-.089.266-.31.625-.25.403-.418.542-.418.73 0 .283.236.52.52.52.285 0 .766-.26 1.25-.624l.73-.522.832-.52c.097-.097.262-.446.626-.938zm106.27 13.127c.223.338.174.192.622.417.248-.173.21-.035.21-.21 0-.295-.24-.415-.626-.415zm-1.043.208v-.208l-.21-.418-.416-.207c-.227.339-.227.289 0 .625.191.047.45.12.626.208zm-2.813-.833c0 .25.13.523.418.52l.31-.103-.209-.417-.519-.104zm-1.145.833l.207-.312-.103-.314a3.215 3.215 0 0 0-.522-.415l-.207.208c.152.2.13.559.416.729zm-2.293-.626c0 .365.156.522.521.522.081 0 .235-.077.313-.104a8.012 8.012 0 0 0-.625-.73zm-4.375.522c-.564-.563-.497-.408-.834-.522h-.105c.17.337.353.575.628.835zm-2.296.313l.316-.21c-.165-.37-.352-.493-.73-.625-.028.112 0 .199 0 .314 0 .296.092.52.414.52zm-1.665-.313c0-.104-.167-.4-.208-.522a1.558 1.558 0 0 0-.522-.311c-.223.336-.106.296-.106.52.27.359.488.243.836.417zm-2.602.209l.417-.21c-.167-.382-.354-.73-.73-.936-.07.143-.208.26-.208.415.142.229.4.489.521.73zm-2.813-.731c.161.168.35.422.626.418.223-.112.214-.081.103-.418-.146-.142-.356-.198-.523-.311zm-11.67-38.545c0 .377.437.518.73.518.795 0 3.02-.578 3.02-1.56 0-.304-.393-.314-.625-.314-.602 0-3.125.805-3.125 1.356zm1.145-5.732c1.294 0 6.88-1.014 6.88-2.71 0-.272-.145-.52-.42-.52-.58 0-7.813 1.14-7.813 2.71 0 .52 1.01.52 1.353.52zm1.355-7.917c0 .382.271.623.625.623 1.108 0 8.751-4.682 8.751-5.832 0-.474-.457-.42-.834-.42-1.015 0-1.483.383-2.29.94-1.004.689-6.252 3.263-6.252 4.689zm6.566-10.314c.18-.237.414-.41.414-.73-.078-.12-.259-.313-.414-.313-.655 0-2.594 1.142-3.126 1.563-.476.927-3.44 1.497-3.44 3.127 0 .275.141.417.416.417.575 0 1.363-.318 1.875-.523 1.934-.772 3.041-1.94 4.275-3.541zM98.46 105.33c.563.573.768 1.356 1.46 1.874.492.368.992.647 1.456 1.043 1.473 1.256 2.608.789 3.753 2.5.498.743 2.062.248 3.02.834.38.229 1.315.833 1.774.833.251 0 .803-.194 1.041-.311.738.375 2.734.727 3.644.727.333 0 .624-.11.94-.103.584.006 1.05.52 1.666.52.455 0 .895-.21 1.354-.21.394 0 .74.21 1.147.21.925 0 1.78-.312 2.71-.312.422 0 .841.208 1.25.208.46 0 .898-.313 1.351-.313.33 0 .646.205.94.208.37.238.283.21.728.21.298 0 .661-.105.94-.105.691 0 1.378.287 2.084.312.342.013.696-.024 1.04 0 .185.013.334-.03.518 0 .168.127.51.416.73.416.483 0 .904-.416 1.356-.416.656 0 1.112.52 1.77.52 1.044 0 2.261-.135 3.231-.52.268-.104.657-.362.938-.417.156-.028.39.022.522-.103 2.74 0 2.363-1.017 4.794-1.772.111.114.06.137.518.209 1.513.229 2.795-1.408 3.126-1.875.368.006.704-.292 1.041-.417.971-.362.802-.371 1.357-1.354.864-1.548 2.786-.582 3.124-2.604.355-2.111 1.338-1.114 1.563-2.607.28-1.876 1.562-2.29 1.562-3.021 0-.34-.313-.786-.313-1.145 0-.691.313-1.413.313-2.084 0-.816-.729-1.7-.729-2.603 0-.16.102-.26.102-.418 0-.87-1.499-1.59-1.769-2.395-.068-.068-.42-.314-.523-.314-.195 0-.206.156-.206.314 0 .646.73 1.192.73 2.29 0 .403.043.874.208 1.252.371.855.522.535.522 1.457 0 .686-.21 1.294-.21 1.98 0 .517.313.998.313 1.458 0 .584-.228.975-.625 1.353-.468.45-.45 1.057-.52 1.669-.124 1.063-1.208 1.597-1.563 2.604-.27.77-.784 1.006-1.458 1.46l-1.566 1.04c-.382.754-1.032.834-1.77 1.043-1.302.369-1.199 2.084-3.022 2.084-.362 0-.699.01-1.042 0-.887-.028-1.252 1.564-3.854 1.564-1.248 0-2.439.633-3.645.935-.625-.166-1.542-.414-2.187-.414-.399 0-.75.206-1.148.206-.357 0-.87-.24-1.147-.416l-.727-.208c-.405.219-1.927.116-2.398 0-.533.18-.883.208-1.46.208-.736 0-.688-.013-1.352-.418-.507-.095-1.05-.103-1.56-.103-.658 0-2.874.372-3.44.52-.55-.06-1.012 0-1.568 0-.659-.382-1.249-.31-2.08-.31-.699 0-1.333-.522-2.084-.522-.437 0-.819.208-1.25.208-.652 0-1.223-.417-1.876-.417-.739 0-1.533.209-2.29.209-.856 0-1.93-1.297-3.125-1.46-1.268-.17-1.116-.124-2.085-.833-.734-.536-1.567-.8-2.294-1.355-.636-.485-.34-.37-1.246-.521-.477-.077-.79-.883-.94-1.248-.447-1.08-1.073-1.255-1.77-2.084-.288-.344-.45-.942-.626-1.355-.514-1.205-.858-1.807-1.148-3.124-.08-.376-.152-1.01-.312-1.356-.186-.406-.314-.485-.314-.94 0-.91.524-1.69.524-2.602 0-1.126-.096-.818-.21-1.041.01-.552 1.667-1.88 1.667-3.335 0-.141-.108-.217-.207-.314-.142.28-.903 1.24-1.148 1.565-.997 1.325-1.355 1.03-1.355 2.918 0 .626-.31 1.375-.31 1.978 0 2.034.084 4.247 1.353 5.938.245.325.62.603.625 1.043.385.762-.215 1.022.835 1.457.214.088.67.249.832.418zm62.304-34.797c.346-.021 1.641-.897 1.664-1.25l-.103-.21c-.803.397-1.427.343-1.873 1.252zm-5.629 16.358l-.102-.107c-.358-.033-.888.525-1.044.833.1.099.175.105.315.105.284 0 .831-.516.831-.831zm-.312-2.087c-.007.026-.163 0 .627 0 .124 0 .568-.613.627-.73l-.208-.103c-.38.083-.569.392-.836.522-.149.073-.156.167-.21.31zm1.046-2.396c.327 0 1.04-.362 1.04-.73l-.209-.206c-.437.064-.583.388-.936.52-.114.337-.122.303.105.416zm2.395-3.957c-.497.17-1.126.475-1.356.937 0 .108.106.31.21.31.402 0 1.08-.705 1.25-1.04zm.521-1.668c.357.002 1.093-.523 1.247-.835l-.205-.205c-.489 0-1.045.629-1.253 1.04zm2.5-4.585c-.45 0-1.458.539-1.458 1.044 0 .178.03.31.205.31.322 0 1.46-.834 1.461-1.25-.049-.045-.139-.104-.209-.104zm-26.67 46.779c.142-.145.31-.312.31-.52 0-.326-.298-.82-.522-1.043-.23.117-.309.61-.309.833 0 .303.126.73.52.73zm2.602-2.292c.003.343.184 1.247.625 1.25l.207-.21c0-.358-.096-1.145-.626-1.145zm4.584.208c.155 0 .141-.494.21-.624 0-.273-.142-.522-.416-.522-.17 0-.418.238-.418.419 0 .375.138.727.624.727zm4.898-2.396c-.153.1-.315.333-.315.52 0 .365.066.377.315.626.186-.186.194-.4.311-.625 0-.214-.07-.521-.31-.521zm5.52-1.25c.256-.255-.04-1.041-.413-1.041-.203 0-.209.245-.209.418 0 .424.257.624.622.624zm3.65-2.708c.151.075.253.05.412.103.133-.255.108-.422.108-.728 0-.201-.083-.417-.312-.417-.275 0-.42.107-.42.417 0 .202.12.449.212.625zm3.958-4.794c-.324 0-.442.162-.314.419-.002.3.42.833.73.833.325 0 .353-.355.521-.521 0-.446-.544-.731-.937-.731zm2.186-3.752c0 .428.752.522 1.043.522l.105-.207c0-.532-.583-.52-1.042-.52-.106.05-.106.089-.106.205zm1.46-5.832a.306.306 0 0 0-.312.313c0 .414.9.626 1.25.626.138 0 .105-.102.105-.21 0-.45-.678-.73-1.044-.73zm-49.384 21.463a.623.623 0 0 0 .623-.625c0-.326-.089-.401-.312-.627-.226.15-.52.567-.52.833 0 .188.074.283.21.419zm4.686.519c.351 0 .52-.474.52-.73 0-.19-.067-.481-.209-.623-.343.228-.623.63-.623 1.042 0 .228.115.309.312.31zm4.168.834c.252-.274.388-.9.52-1.251.004-.203-.076-.312-.312-.312-.173.354-.415.502-.415.94 0 .194.098.46.207.623zm4.168-1.563c-.02.068-.21.587-.21.625 0 .129-.027.488.105.626a.418.418 0 0 0 .208.312c.384 0 .405-.834.208-1.042-.062-.188-.143-.412-.31-.521zm3.961 1.773c.297 0 .313-.657.313-.833 0-.16-.233-.566-.313-.73-.39.387-.386.696-.522.833 0 .239.231.73.522.73zm-22.4-3.337c0-.316.023-.496-.208-.726-.253 0-.494.22-.626.415v.417c0 .346.132.416.311.624.317 0 .522-.446.522-.73zm-4.273-1.874c0-.182-.025-.728-.312-.728-.492.25-.794.549-1.043 1.042 0 .159.012.522.21.522.366 0 1.145-.412 1.145-.836zm-4.689-2.083c.326 0 .834-.538.834-.833 0-.12-.104-.262-.209-.312-.138.016-1.038.585-1.038.833 0 .24.2.312.413.312zm-4.166-3.96c-.134.149-.134.39 0 .522.48 0 1.04-.402 1.044-.936l-.21-.107c-.318 0-.723.188-.834.52zm-1.979-4.584c-.325 0-.735.43-.835.73l.312.21c.305 0 .735-.434.835-.732-.055-.105-.194-.208-.312-.208zm-1.562-3.855c-.15-.15-.57-.248-.732-.102-.375 0-1.562.24-1.562.727 0 .294.752.315.94.315.588 0 1.095-.426 1.354-.94zm-1.776-4.27c-.208-.16-.459-.314-.725-.314-.364 0-2.396.025-2.396.626.367.37.868.417 1.354.417.438 0 1.767-.064 1.767-.73zM85.748 89.7c-.286 0-1.04-.011-1.04.42 0 .453 2.425 1.246 2.5 1.246.388 0 1.875.263 1.875-.518 0-.602-2.559-1.148-3.335-1.148zm4.375-5.626c0-.88-2.923-1.874-3.437-1.874-.262 0-2.395.018-2.395.417.914.918 3.008 2.186 4.375 2.186.517 0 1.457.036 1.457-.73zm8.13 3.647c.157 0 .231-.19.311-.311-.094-.273-.64-.835-.937-.835a.422.422 0 0 0-.419.417c0 .325.743.729 1.044.729zm-1.045-3.124c.11 0 .314-.212.314-.314 0-.435-1.06-1.062-1.457-1.041-.107.05-.212.195-.212.31 0 .436.983 1.045 1.355 1.045zm-2.604-4.066c.111.23.988 1.043 1.25 1.043.158 0 .233-.09.313-.207-.165-.334-.827-1.042-1.248-1.042-.117 0-.262.103-.315.206zm-8.33-2.811c.185 0 .312-.012.312-.104 0-.191-.373-.577-.94-1.148-.096 0-.487-.378-1.147-1.04-.753-.757-2.169-1.905-3.02-2.397a1.432 1.432 0 0 0-.732-.208c-.284 0-.31.132-.31.418 0 .568 1.104 2.014 2.394 2.915 1.556 1.085 2.398 1.564 3.442 1.564zm6.351-.521c.218.389 1.05 1.042 1.457 1.042.167 0 .418-.205.418-.42-.368-.367-1.034-.832-1.563-.832-.118 0-.259.103-.312.21zm-2.186-3.333c0 .463.931 1.042 1.352 1.042.177 0 .211-.032.211-.21-.256-.502-.839-.648-1.253-1.041-.179 0-.31.029-.31.209zm.103-2.085a.319.319 0 0 0 .315-.312c0-.117-.069-.312-.21-.312-.424-.337-.84-.766-1.356-.94.12.44.624 1.564 1.251 1.564zm-1.98-4.585c0 .323 1.291 1.252 1.561 1.252.16 0 .214-.013.211-.21-.157-.308-.183-.262-.522-.416-.272-.336-.449-.833-.937-.833-.117 0-.259.102-.314.207zm-10.105-2.5c0 .19.125.664.312 1.043a7.011 7.011 0 0 0 1.145 1.666c.87.94 2.254 1.772 2.917 1.772.476 0 .627-.142.627-.521 0-.663-.55-1.474-1.877-2.501-.374-.288-.924-.784-1.667-1.458-.316-.29-.687-.624-1.145-.624-.285 0-.312.244-.312.624zm61.262 72.41c.008.553 2.623.936 3.334.936.427 0 .925.033 1.352 0 .173-.015 2.503.006 2.501-.522-.132-.131-.543-.103-.729-.103-.782 0-1.592.103-2.398.103-1.298 0-2.59-.414-3.854-.414zm5.832-1.983h-2.708c-1.58 0-3.48-.064-5.002-.521-.252-.075-1.032-.312-1.249-.312-.183 0-.525.075-.525.312 0 .266.544.348.734.419 2.08.8 3.911 1.25 6.145 1.25 1.476 0 4.024-.17 5.314-.833.008-.656-2.31-.315-2.709-.315zm-.623-4.478c.105.217.3.31.518.417.105-.052.21-.193.21-.314 0-.232-.614-.535-.728-.624-.16.16 0 .285 0 .52zm-2.085-.417c0 .232.267.52.518.52.164 0 .235.054.316-.103 0-.152-.21-.262-.209-.417-.186-.093-.2-.1-.415-.104zm-1.667 0c0 .254-.124.524.208.52l.21-.103v-.21c0-.21-.255-.342-.418-.416-.07.07 0 .116 0 .209zm-3.44 0c0 .13.237.623.417.627.12 0 .09.007.313-.107a1.5 1.5 0 0 0-.625-.833c-.057.115-.106.185-.106.313zm-1.77.208c-.122-.241-.168-.407-.416-.625-.173.17-.208.284-.208.522 0 .152.296.253.415.312.122 0 .16-.103.21-.21zm-2.502-.417c-.125 0-.103.088-.103.209 0 .153.165.39.21.52l.312.21c.096-.096.21-.174.21-.313v-.21c0-.042-.089-.157-.106-.207-.04-.021-.286-.21-.312-.21zm-2.29.417c0 .22.22.53.416.626.193 0 .311-.225.311-.417-.225-.45-.075-.296-.416-.521-.095.05-.312.209-.312.312zm-32.193-.417l.104-.208c0-.212-.42-.625-.626-.625-.07 0-.426.199-.207.417 0 .31.47.416.73.416zm-2.293-.833c-.105.054-.209.296-.209.417.093.185.295.625.521.625.121 0 .16-.104.208-.21 0-.203-.286-.832-.52-.832zm-1.145 1.25c.112-.223.104-.087.104-.312-.21-.42-.137-.28-.626-.521-.112.113-.102-.024-.102.312.08.159.47.524.624.52zm-3.126-.833c-.06.18-.105.33-.105.52 0 .39.237.522.625.522 0-.34-.012-1.042-.52-1.042zm-2.19.312c0 .386.27.483.522.73.21-.21.21-.344.21-.626a.649.649 0 0 0-.625-.626c-.1.099-.21.175-.21.314zm-1.352.73c.185.043.416-.224.416-.417 0-.406-.232-.671-.625-.625-.18.02-.207.127-.207.312 0 .206.217.684.416.73zm-1.667-.626c0-.377-.337-.626-.728-.626.088.355.132.68.106 1.043.077.12.257.312.412.312.088-.175.21-.51.21-.73zm-2.5 1.25c.264 0 .417-.627.417-.833 0-.504-.19-.804-.626-1.043-.105.054-.208.089-.208.21l.104.208c.06.232-.124 1.458.312 1.458zm15.524 4.896c-1.999.667-4.047.833-6.15.833-.99 0-1.99-.311-2.915-.311-.104 0-.127-.064-.208 0 1.101.585 2.426.73 3.645.73.76 0 5.574-.322 5.628-1.252zm-5.628-.52c.94 0 6.771-.886 6.771-1.876 0-.54-6.414.418-7.084.418-1.189 0-2.706-.051-3.852-.312-.823-.188-1.75-.521-2.605-.521-.205 0-.313.179-.313.415 0 1.698 6.03 1.876 7.083 1.876zm34.28-85.743c0-.721-.416-1.34-.416-2.19.237-.22.415-.584.415-.935 0-.227-2.89-4.151-3.127-4.272-.148.092-.346.152-.418.312-.585 1.34-1.168 2.485-2.188 3.542-.075.08-.415.507-.415.628 0 .515.52.528.52 1.354-.247.496-.38 1.074-.625 1.56-.002.475 1.424.418 1.67.418.802 0 .127 1.354 1.456 1.354.591 0 .691-.404 1.042-.832.713-.873 2.085-.107 2.085-.94zm-5.422-6.457c.26 0 .42-.125.42-.42 0-.403-.232-.623-.627-.623-.242 0-.52.3-.52.52 0 .34.443.523.727.523zm4.795-1.043c-.267 0-.625.103-.625.415 0 .245.28.52.52.52s.426-.33.521-.52c-.112-.337.032-.19-.416-.415zm-2.396-1.46c.276 0 .518-.143.518-.416 0-.365-.305-.52-.623-.52-.243 0-.418.3-.418.52 0 .284.295.417.523.417zm-1.98-10.418c-.124.454-.24.918-.419 1.354-.152.16-.52 1.162-.52 1.354 0 .299.888.21 1.042.21 1.67 0 1.052 1.145 2.083 1.145.442 0 .577-.26.731-.623.445-1.072 1.98-.373 1.98-1.148 0-.182-.936-1.54-.936-2.292 0-.826.69-.654.935-1.144 0-.186-.107-.315-.104-.42-.119-.222-1.803-3.854-2.294-3.854-.612 0-3.229 4.175-3.229 4.687.167.333.564.4.731.73zm5.002-5.208c0-.21-.054-.42-.315-.42-.267.002-.52.127-.52.42 0 .2.193.623.42.623.334 0 .415-.351.415-.623zm-4.377.208a.4.4 0 0 0-.419-.418c-.343 0-.415.075-.413.418 0 .222.194.415.413.415.331 0 .42-.146.42-.415zm1.77-1.563c.463 0 .52-.22.522-.624a.905.905 0 0 0-.419-.42c-.262.09-.623.31-.623.626 0 .24.278.418.52.418zM138.78 37.4c.142-.07.313-.128.313-.312 0-.324-.249-.351-.415-.521-.195 0-.419.227-.419.418 0 .24.281.415.521.415zm-4.792 4.376c-.17.676-.456 1.236-.73 1.876-.096.087-.106.085-.106.207 0 .38 1.29.309 1.462.315 1.303.027.57 1.459 1.767 1.459.468 0 .65-.61.836-.938.484-.851 1.977-.334 1.981-1.043-.192-.388-.629-1.022-.629-1.458 0-.575.524-.82.524-1.25 0-.687-2.169-3.75-2.712-3.75-.458 0-2.916 3.118-2.916 3.646.16.314.405.589.523.936zm-.104 16.047c.061.184.21.423.21.624 0 .922-.837 1.122-.837 1.666 0 .377.731.419.938.419.173 0 .352-.21.522-.21.715 0 .893 1.562 1.664 1.562 1.264 0 .707-1.588 1.982-1.771.231-.032 1.041-.006 1.041-.415 0-.326-.832-.961-.835-1.668.045-.162.19-.422.314-.522 0-1.001-2.068-4.006-2.707-4.06-.354.17-2.5 3.573-2.5 3.956 0 .17.09.297.208.419zm0-3.751c.474 0 .833-.25.833-.624 0-.437-.39-.42-.729-.42-.286.097-.417.446-.417.73 0 .285.03.314.313.314zm4.583-.21c.284 0 .416-.04.416-.414 0-.365-.205-.42-.52-.42-.19 0-.314.238-.314.52 0 .192.134.314.418.314zm-2.29-1.666c.274 0 .625-.352.625-.626 0-.286-.248-.627-.626-.627-.283 0-.52.352-.52.73 0 .285.237.523.52.523zm-2.083-14.587c.283 0 .412-.132.412-.415 0-.407-.319-.322-.518-.52-.286 0-.417.235-.417.52 0 .283.237.415.523.415zm2.287-1.248c.29 0 .63-.237.63-.521 0-.193-.238-.314-.525-.314-.28 0-.519.132-.519.416 0 .285.226.419.414.419zm-22.605 17.398c0 .273.142.52.417.52.363 0 .52-.307.52-.626-.08-.161-.313-.415-.52-.415-.259 0-.417.29-.417.52zm4.48.52c.241-.08.625-.324.625-.626 0-.283-.26-.416-.522-.415-.3 0-.647.266-.52.52 0 .155.286.459.416.52zm-5 2.5c.462.739.623.77.623 1.459 0 .988-.483 1.31-1.039 2.084.262.267.924.21 1.25.21 1.07 0 .882 1.562 1.77 1.562 1.267 0 .504-1.355 1.77-1.355.3 0 1.355.062 1.355-.417 0-.606-.936-1.21-.936-1.875 0-.543.625-.334.625-1.043 0-.33-1.976-3.535-2.086-3.645-.073-.218-.179-.418-.416-.418-.252 0-2.736 3.074-2.916 3.439zm1.976-19.585c-.234 0-2.81 3.318-2.81 3.75 0 .402.561.682.834.832 0 1.038-.73 1.558-.73 2.293 0 .302.76.31.936.31 1.246 0 .981 1.15 1.668 1.15.551 0 .9-1.185 1.876-1.251.391-.028 1.043.163 1.043-.42 0-.49-.629-1.001-.629-1.767 0-.421.63-.39.63-.834 0-.923-.96-1.623-1.462-2.397-.237-.372-1.026-1.666-1.356-1.666zm1.147 15.002c.287 0 .523-.227.523-.418 0-.283-.236-.625-.523-.625-.285 0-.417.333-.417.52 0 .285.132.523.417.523zm-3.333-15.211c-.189 0-.427.13-.52.415 0 .286.237.52.52.52.284 0 .416-.234.416-.52 0-.14-.279-.415-.416-.415zm4.691.832a.523.523 0 0 0 .518-.52c0-.188-.133-.417-.416-.417-.287 0-.625.229-.625.52 0 .19.237.417.523.417zm-2.505-1.456c.286 0 .627-.248.627-.628 0-.19-.237-.207-.518-.207-.286 0-.524.076-.524.416 0 .285.133.419.415.419zM71.477 44.9c-.906 0-2.387-3.3-2.81-3.853-.609-.786-1.502-1.567-2.19-2.292-.553-.578-5.053-7.511-5.419-8.334-.276-.628-.559-1.202-.937-1.773-.29-.44-.683-.897-.938-1.355-.264-.468-.379-.974-.625-1.457-.28-.548-.76-1.116-1.04-1.666-.395-.762-1.034-2.843-1.774-3.335-.42.204-.629.626-1.145.626-.77 0-.797-.351-.834-1.043-.048-.924-.104-1.893-.104-2.811 0-.571.151-2.13.731-2.396 1.271.003 3.093 4.94 3.851 6.25.27.457.537.725.73 1.248.12.316.198.56.417.834 1.027 1.283 1.795 2.726 2.604 4.169.714 1.269 1.675 2.335 2.398 3.645 1.043 1.895 2.344 3.617 3.542 5.419.665.999 1.3 1.914 2.188 2.708.2.18.95.996 1.043 1.252.361 1.004 1.04 1.838 1.04 2.915 0 .494-.088 1.25-.728 1.25zM56.475 26.984c0 .528-.259 3.332-1.252 3.332-.756 0-.83-2.892-.83-3.332 0-.808.418-2.918 1.456-2.918 1.085 0 .626 2.498.626 2.918zm1.043 7.917c-1.394 0-1.043-3.355-1.043-3.956 0-.348.09-1.25.21-1.563.134-.378 1.061-1.772 1.456-1.772.848 0 .882 2.384.938 2.813.096.759-.392 2.368-.52 3.228-.084.545-.385 1.25-1.04 1.25zm2.708-4.062c.957 0 1.248 2.48 1.248 3.127 0 2.179.295 5.52-.936 5.52-.934 0-1.459-3.675-1.459-4.376 0-.45.19-4.271 1.147-4.271zm-6.565 6.77c0-.577.554-.831 1.04-.831 2.06 0 7.052 7.038 7.814 7.918.261.13.515.78.628 1.04.438 1 1.88 2.408 2.812 2.919.114.064.174.4.21.52.13.446.41.615.727.937 1.101 1.106 2.236 1.96 3.126 3.23.21.142.4.302.625.418.485.248.825.723 1.145 1.146.476.626.812 1.01 1.458 1.458.236.162.628.297.628.625 0 .74-1.514 1.459-2.086 1.459-2.09 0-7.462-7.2-8.23-8.127-1.113-1.345-2.207-2.74-3.332-4.063-.418-.485-.919-.786-1.253-1.355l-.1-.522c-.236-.265-1.522-1.644-1.775-1.768-.602.4-1.056 1.04-1.875 1.04-.394 0-.925-.708-1.145-1.04-.022-.66-.255-1.245-.313-1.875-.089-.99-.104-2.121-.104-3.128zm61.155 10.213L97.077 35.004c-.303-.216-.898-.724-.898-.873 0-.507.652-.415 1.043-.415h22.221l6.731-20.8c.058-.184.214-.831.416-.831.14 0 .394.86.52 1.25l6.565 20.42h22.193c.391 0 1.04-.021 1.04.52 0 .419-.435.718-.73.938l-18.025 13.44 6.147 19.69c.078.248.365 1.04 0 1.04-.319 0-.762-.321-1.039-.52l-15.525-10.938c-.307-.216-.854-.73-1.249-.73-.328 0-1.06.635-1.462.94l-14.792 11.249c-.548.419-1.355.94-1.77.94-.669 0-.204-1.134-.106-1.461zm82.932-20.108c0 .556-.103 2.188-.937 2.188-1.056 0-1.148-1.522-1.148-2.292 0-.633.07-3.023 1.041-3.023.474 0 1.044 2.549 1.044 3.127zm-3.334 1.145c.466 0 .708 1.127.937 1.564.115.22.236.492.312.727.022.064.208.99.208 1.042v1.98c0 .335.005 1.562-.52 1.562-1.372 0-1.563-3.848-1.563-4.79 0-.261.087-.563.106-.834.027-.417-.176-1.251.52-1.251zm-2.92 6.46c0-.641.465-2.501 1.252-2.501.958 0 .625 1.104.625 1.669 0 1.269.73 2.392.73 3.644 0 .716-.37 2.812-1.355 2.814-1.104-.4-1.253-4.363-1.253-5.626zm-1.038 1.562c.462.68.623 1.69.623 2.502v2.5c0 .35-.237 2.813-1.04 2.813-.219 0-.813-.73-1.042-.836 0-.58-.046-.8.105-1.353-.03-.27-.105-.666-.105-.936 0-.926-.04-4.692 1.46-4.69zm-3.439 3.229c.221 0 .37.163.522.31.362.37 1.145 4.536 1.145 5.316 0 .49-.178 2.816-1.043 2.816-.945 0-.862-1.55-1.145-2.191-.135-.302-.343-.724-.419-1.041-.02-.087-.207-1.57-.207-1.667 0-.49.17-3.543 1.147-3.543zm-.94 9.48c0 .675-.68 1.354-1.353 1.354-.737 0-.52-.85-.52-1.353-.192-.384-.625-2.517-.625-3.021 0-.54.624-2.138.938-2.605.58-.002 1.56 5.164 1.56 5.626zm5.211-21.354c.71-1.972 2.46-3.345 3.334-5.21.615-1.322 3.387-8.335 4.687-8.335.422 0 .522 1.276.522 1.562 0 1.623-.305 3.179-.418 4.792-.026.378-.048 1.459-.625 1.459-.719 0-.665-1.667-1.04-1.667-.538 0-.689 1.7-1.044 2.083-.542 1.224-1.184 2.614-1.87 3.75-.644 1.055-.957 1.42-1.463 2.604-.273.642-3.27 4.803-3.645 5.213-.773.84-1.379 2.335-1.563 2.499-.945.838-1.155 1.028-1.77 2.084-.465.794-1.11 1.252-1.669 1.979-1.006 1.31-2.479 3.726-3.647 4.897l-1.04 1.043c-.255.25-.507 1.039-.94 1.039-.334 0-.31-.352-.31-.624 0-.53 2.411-4.36 2.914-4.897.65-.69 1.08-1.28 1.566-2.086.506-.832.953-1.778 1.457-2.603.51-.835 1.084-1.6 1.772-2.291 1.82-1.824 2.515-5.013 4.792-7.291zM180.453 50.32c.385 0 .241.21.624.21.596 0 .415-1.348.415-1.667.336-.333.4-1.46 1.043-1.46.468 0 .42.482.42.833 0 1.325.522 2.467.522 3.75 0 .678-.06 1.667-.942 1.667-1.197 0-.962-1.166-1.145-1.355-.418-.01-.184 2.816-1.664 2.816-.525 0-.94-1.677-.94-2.086 0-.567.325-.786.623-1.25.33-.501.176-1.458 1.044-1.458zm8.65 6.668c0-.587-.209-1.08-.209-1.667 0-.612.253-1.044.937-1.042.97.509 1.248 1.44 1.248 2.5 0 .884-.477 2.919-1.666 2.919-.858 0-.31-2.173-.31-2.71zm-7.505 4.584c.457 0 .626 1.135.626 1.459 0 .642-.247 2.29-1.147 2.29-.625 0-.832-.478-.832-1.041 0-.756.286-2.708 1.353-2.708zm2.397-1.668c.674 0 1.041 1.277 1.041 1.773 0 .386-.299 1.564-.833 1.564-.845 0-.936-1.041-.936-1.67 0-.475.035-1.667.728-1.667zm4.063.209c0 .766-.287 1.876-1.248 1.876-.775 0-1.045-.543-1.045-1.25 0-.634.153-1.248.211-1.875.074-.81-.065-2.398 1.146-2.398.814 0 .57 1.767.625 2.19.055.437.311 1.026.311 1.457zm4.688-9.271c1.293 0 1.355 2.606 1.355 3.437 0 1.26-.309 2.187-1.772 2.187-1.004 0-.728-1.6-.728-2.187 0-.835.035-3.437 1.145-3.437zm2.917 1.77c-1.303 0-1.04-1.026-1.04-1.98 0-.86-.157-3.438 1.04-3.438.64 0 1.254 1.71 1.148 2.292-.107.56-.212 3.126-1.148 3.126zm2.293-14.482c.644 0 .896 1.489.832 1.979-.134 1.06.086 4.48-1.668 4.48-.224 0-.406.03-.62.106-.65.636-1.246 1.4-1.878 2.083-3.57 3.85-6.222 7.51-10.627 10.626-.47.333-3.089 2.188-3.646 2.188-.573 0-.73-.425-.73-.936 0-.847 3.812-3.974 4.584-4.794 2.284-2.423 4.46-4.896 6.771-7.293 1.282-1.323 2.42-3.553 3.44-4.585.507-.514.914-.988 1.355-1.564.373-.484 1.418-2.29 2.187-2.29zm-17.4 38.134c-.62 0-1.147-.781-1.147-1.355 0-.814.383-2.085 1.358-2.085.42.208.934.838.831 1.355-.138.702-.084 2.085-1.042 2.085zm3.023-4.898c.7 0 .731 1.309.731 1.77 0 .67-.364 1.564-1.148 1.564-.627 0-.834-.861-.834-1.354 0-.615.491-1.98 1.251-1.98zm1.354-.833c-.035-.381.841-.993 1.144-1.15.805.536.626 1.166.626 2.087 0 .507-.026 1.562-.727 1.562-1.223 0-.975-1.74-1.043-2.5zm3.751-3.127c.582.386.73 1.11.73 1.772 0 .56-.163 1.772-.94 1.772-.354-.18-.52-1.171-.52-1.566 0-.552-.103-1.98.73-1.978zm2.395-3.126c.22.108.94.704.94.939 0 .568-.432 2.708-1.045 2.708-.832 0-.727-1.552-.727-2.084 0-.56.068-1.563.832-1.563zm2.292-2.396c.892 0 1.043 1.08 1.043 1.77 0 .393-.246 1.877-.833 1.877-1.142 0-1.044-1.086-1.044-1.876 0-.538.043-1.771.834-1.771zm3.128-6.98c.55 0 .831 1.043.831 1.459 0 .63-.587 3.12-1.353 3.126-.457-.304-1.533-.412-1.978 0-.909.829-1.479 1.726-2.193 2.709-.68.94-1.509 1.759-2.393 2.5-.935.783-1.622 2.034-2.5 2.918-.662.664-1.498 1.384-2.293 1.874-.717.44-1.609.856-2.189 1.46-.405.424-.703.832-1.354.832-.856 0-1.458.185-1.458-.832 0-1.807-.395-2.353 1.148-3.127.791-.397 1.634-.661 2.395-1.04.83-.416 1.54-1.144 2.29-1.67 2.16-1.507 4.051-3.03 6.041-4.791 2.241-1.982 2.064-3.46 5.006-5.417zm-5.21 16.668c.583 0 .626.49.626.94 0 .78-.479 1.13-1.148 1.355-.653.61-1.485 1.232-2.083 1.876-.537.573-1.072 1.257-1.562 1.874-.774.966-7.565 4.376-8.856 4.376-.277 0-.52-.142-.52-.418 0-1.025.763-1.954 1.458-2.71 1.19-1.297 7.194-4.7 8.126-5.207.738-.403 1.564-.624 2.29-1.043.614-.351.897-1.043 1.668-1.043zm-15.004 17.193c-.802 0-.728-1.46-.728-1.981 0-.611.358-1.667 1.147-1.667.374 0 .474.535.414.833-.094.474-.129.982-.207 1.46-.059.374.008 1.355-.626 1.355zm2.812-4.481c.672 0 .94.464.94 1.042 0 .59-.404 2.499-1.25 2.499-.568 0-.729-1.052-.729-1.456 0-.48.416-2.085 1.04-2.085zm2.501-1.041c.496 0 .833.819.833 1.25 0 .584-.583 1.666-1.249 1.666-.617 0-.833-.652-.833-1.144 0-.455.775-1.772 1.25-1.772zm2.605-2.292c.868 0 .73.833.73 1.457 0 .578.057 2.19-.73 2.19-.75 0-.832-1.165-.832-1.67 0-.395.197-1.977.832-1.977zm2.5-1.355c.454 0 .73-.028.73.523 0 .23.002.513-.103.728.118.475.103.864.103 1.354 0 .626-.286 1.042-.937 1.042-.666 0-.834-1.194-.834-1.668 0-.162.103-.253.103-.415.13-.255.547-1.564.938-1.564zm1.981-2.606c.607 0 .52.559.52 1.042 0 .3.252 2.397-.52 2.397-.777 0-.73-1.138-.73-1.666 0-.436.111-1.773.73-1.773zm-3.439 9.586c.322 0 .625.299.625.627 0 .843-2.775 2.853-3.335 3.332-2.34 2.005-4.669 3.649-7.917 3.649-.804 0-2.084-.597-2.084-1.565 0-1.02 2.791-2.414 3.65-2.918 2.067-1.21 3.36-2.088 5.73-2.498 1.04-.182 2.275-.627 3.331-.627zm-14.898 14.585c-.632 0-.939-.677-.939-1.248 0-.652.16-1.876 1.042-1.876.556 0 .626.605.626 1.04 0 .506-.01 2.084-.729 2.084zm1.98-2.916c.717 0 .833.785.833 1.356 0 .564-.215 1.56-.938 1.56-.5 0-.45-1.234-.523-1.667-.065-.077 0-.211 0-.312 0-.397.146-.937.628-.937zm2.291-1.25c.672 0 .833 1.219.833 1.667 0 .538-.089 1.666-.833 1.666-.517 0-.726-.756-.726-1.146 0-.38.154-2.187.726-2.187zm1.772-.521c0-.206.284-.417.521-.417.477 0 .521.572.521.938 0 .284-.09 1.667-.52 1.667-.246 0-.627-.203-.627-.417 0-.144.101-.255.105-.417.151-.231.208-.564.208-.833 0-.127-.208-.396-.208-.521zm2.917 1.354c-.59 0-.729-1.26-.729-1.667 0-.666.081-2.187 1.041-2.187.6 0 .91.595.834 1.145-.1.72-.052 2.709-1.146 2.709zm2.606-5.002c.658 0 .936.853.936 1.358 0 .76-.414 2.03-1.148 2.395-.39-.01-.414-1.587-.414-1.876 0-.282.216-1.877.626-1.877zm-3.753 6.878c1.007-.31.573-.315 1.876-.312.32 0 .832.503.832.834 0 .37-.607 1.107-.832 1.456-.846 1.333-1.85 2.607-3.646 2.607-.659 0-1.554-1.001-1.04-1.564 0-.79-.11-.67-.732-1.043a1.03 1.03 0 0 1-.105-.414c0-.673.253-.731.836-.731.162-.081.488-.286.626-.418.687-.227 1.478-.2 2.185-.415zm-7.813 4.896l.518.312c.5.022.975-.102 1.462-.102.923 0 1.292.293 1.981.832.423.334 1.491-.281 3.644 1.877.242.237.73.666.73 1.04 0 1.7-2.958 2.083-4.169 2.083-.942 0-1.53-.152-2.393-.52-1.166-.494-2.132-.296-3.335-1.042-.447-.278-1.252-.64-1.252-1.25 0-.496.423-.524.833-.626a.72.72 0 0 0 .211-.52c0-.591-.522-.584-.522-1.042 0-1.032 1.134-.68 1.772-1.042zm-3.856 16.253c.427 0 .311-.754.311-1.042 0-1.288-1.765-5.314-3.12-5.314-.398 0-.627.2-.627.627 0 1.326 2.006 5.729 3.436 5.729zm3.23-7.605c.475 0 .21-.426.21-.624 0-.59.244-.835.835-.835 1.287 0 4.478 3.184 4.478 4.48 0 .96-.575 1.355-1.46 1.355-2.49 0-5.57-2.918-6.25-2.918-.17 0-.208.139-.208.312 0 .138-.1.204 0 .31.658 1.61 1.978 4.465 1.978 6.149 0 1.1-.938 1.876-1.978 1.876-.27 0-.618-.018-.835-.21-.698-.031-3.909-2.623-4.895-3.123-1.097-.026.361 3.957-1.875 3.957-1.74 0-5.939-2.428-5.939-4.376 0-.407.332-.832.73-.832.651 0 .8.418 1.041.418.757 0 .526-.525.523-.833-.179-.277-.208-.922-.208-1.253 0-.967.265-2.811 1.56-2.811 1.36 0 1.918 1.039 2.603 1.039 1.821 0-.06-5.311 3.024-5.311 1.978 0 6.361 3.23 6.666 3.23zm16.255 25.939c-1.315.003-1.803-.156-3.022-.624-3.442-1.318-5.195-2.77-7.916-5.208-1.044-.933-4.588-3.394-4.588-4.69 0-1.947 4.578-2.187 5.835-2.187 2.544 0 5.277.857 7.503 2.084.58.322 2.077 1.786 2.498 1.458.52-.402-.624-1.65-.624-2.083 0-1.168 4.095-1.252 4.794-1.252 3.828 0 8.021 2.004 8.021 6.358 0 4.829-4.812 6.77-8.96 6.77-.215 0-.446-.08-.623-.208 0-.517 3.435-.17 3.435-1.354 0-.238-1.349-.308-1.457-.311-1.07-.043-2.163 0-3.23 0-.858 0-1.752-.21-2.606-.21-.16 0-.726.033-.726.313 0 .595 1.234 1.003 1.666 1.144zm-20.734-13.125c-.22.215-.94.416-1.249.416-.672 0-1.98-.152-1.98-1.041 0-.62.964-1.042 1.458-1.042.706 0 1.767.954 1.771 1.667zm9.687 10.836c0 .212-.068.52-.31.52-.547 0-1.666-.645-1.666-1.252 0-.273.245-.52.521-.52.188 0 1.455 1.043 1.455 1.252zm-22.814-10.627c-.474 0-.889-.248-1.354-.312-.328-.046-2.189.117-2.189-.731 0-.928 2.524-2.291 3.335-2.291.637 0 2.604 1.468 2.604 2.082 0 .777-1.725 1.252-2.396 1.252zm15.211 4.478c0-.496.612-.73 1.04-.73.44 0 .778.432 1.042.73.74.823 1.57 1.702 1.773 2.815.064.354.173 1.816.313 2.082.118.223.314.468.314.73-.05.105-.196.103-.314.103-.635 0-.757-.81-1.044-1.248-.765-1.181-1.466-2.48-2.499-3.44-.265-.243-.625-.662-.625-1.042zm-2.917-.52c0-.288.232-.625.521-.625 1.443 0 3.173 3.622 3.647 4.375.33.532 2.288 3.258 2.288 3.96 0 .17-.006.415-.205.415-.716 0-2.06-2.467-2.605-3.123-.462-.556-1.04-1.082-1.458-1.667-.359-.503-.579-1.174-.939-1.668-.312-.428-1.249-1.12-1.249-1.667zm-2.608-.21c0-.288.304-.311.523-.311.983 0 6.774 7.342 6.774 8.646 0 .276-.248.419-.52.419-.705 0-2.184-1.334-2.606-1.666-.453-.68-.685-1.426-.939-2.188-.36-1.085-2.016-1.862-2.499-3.023l-.522-1.25c-.03-.074-.21-.545-.21-.626zm3.441 7.189c0 .286-.178.732-.522.732-1.455 0-4.789-5.37-4.789-7.084 0-.206.071-.42.31-.42.66 0 2.186 1.836 2.501 2.398.145.262.256.683.418.936.208.335.51.505.727.833.298.454 1.355 2.145 1.355 2.605zm-9.374-7.083c0-.295.171-.731.52-.731 1.066 0 4.101 3.67 4.584 4.794.354.373.291 1.074.624 1.458.595.698.728.57.728 1.562-.138.206-.457.522-.728.522-.604 0-1.12-1.792-1.565-2.291-.197-.226-4.163-4.3-4.163-5.314zm4.163 6.563c0 .289-.229.623-.519.623-.585 0-2.83-1.92-3.124-2.5-.388-.757-.607-.811-1.254-1.456-.138-.142-1.768-2.992-1.768-3.126 0-.195.222-.521.416-.521.802 0 6.25 6.04 6.25 6.98zm-10.206-6.98c0-.34.446-.521.726-.521 1.191 0 3.157 2.544 3.752 3.543.124.21 1.773 2.797 1.773 2.916 0 .244-.206.313-.42.313-.889 0-4.424-3.036-4.895-4.063-.073-.154-.936-1.802-.936-2.188zm-11.359-.73c1.3 0 .344-1.353 2.4-1.353 1.392 0 2.31.56 3.54 1.145 1.64.78 2.39 1.117 3.021 1.564.617.433 1.133.939 2.293 2.187a18.383 18.383 0 0 1 1.667 2.082c.368.539 1.04 1.433 1.04 2.085 0 2.452-4.974 1.966-6.459 2.607-.318.003-.722.102-1.04.102-.744 0-1.354-.188-2.085-.312-3.872-.652-6.733-.986-9.898-3.44-.516-.398-.983-.541-1.56-.833-.994-.496-1.204-1.856-1.878-2.603-.634-.706-2.19-2.473-2.19-3.544 0-1.458 5.365-1.334 5.94-1.351.882.362 1.772.507 2.71.623.93.114 1.334 1.042 2.5 1.042zm-14.792 2.292c-.114-.116-.106-.37-.106-.521 0-.384.135-.76.416-1.041.362.005 1.57 1.673 1.772 1.98.794 1.197.78 2.86 1.25 4.27-.079.12-.26.314-.416.314-.699 0-2.198-2.541-2.29-3.23-.02-.12-.029-.648-.106-.73zm-3.753-.833c0-.294.281-.833.624-.833 1.39 0 3.167 4.618 3.755 5.52.03.602.518 1.503.518 1.564 0 .39-.366.623-.73.623-.268 0-.655-.457-.833-.623-.437-.416-1.116-.76-1.354-1.354-.385-.966-1.235-2.065-1.46-3.021-.137-.59-.263-1.117-.52-1.667zm-4.166-.833c0-.408.29-.834.727-.834.744 0 4.69 6.124 4.69 7.396 0 .47-.263.732-.732.732-1.11 0-1.407-.87-1.767-1.774-.428-1.061-1.115-1.942-1.46-2.811a13.538 13.538 0 0 0-.626-1.354c-.179-.338-.832-1.007-.832-1.355zm-3.126.208c0-.426.315-.73.73-.73.708 0 1.59 1.635 1.872 1.98.378.456.851.815 1.251 1.25.315.337.937 2.538.937 3.022 0 .354-.08.832-.518.832-.987 0-1.715-1.704-2.085-2.29-.352-.552-2.187-3.276-2.187-4.064zm-3.228.208c0-.345.134-.626.521-.626 1.32 0 4.374 5.049 4.374 6.045 0 .178.032.414-.208.414-1.078 0-2.029-1.37-2.605-2.083-.854-1.057-2.082-2.27-2.082-3.75zm-2.607-.416c.087 0 .935.368 1.043.416 1.122.523 1.313 1.26 1.875 2.293.317.388 1.251 1.817 1.251 2.29 0 .372-.153.52-.52.52-1.036 0-4.585-3.963-4.585-4.894 0-.483.484-.625.936-.625zm41.466-32.4c.211.22.056.73.056 1.145 0 5.548-5.177 9.584-10.475 9.584-3.824 0-7.412-1.145-11.25-1.145-3.512 0-6.928.624-10.42.624-5.814 0-9.983-1.872-12.815-7.084-.37-.682-1.039-1.918-1.039-2.71 0-.584.222-.514.726-.623 5.38-1.18 9.378-6.754 9.378-12.191 0-4.658-2.71-8.743-3.646-9.69-.133-.276 1.48-1.293 1.98-1.665l13.89-10.297c.672-.494 1.495-.826 1.734-.851.306-.03.926-.078 2.19.832l13.44 9.69c.411.295.834.696.834 1.25 0 1.13-4.166 5.353-4.166 11.253 0 5.414 3.467 10.683 8.96 11.669 0 0 .493.07.623.209zm-.52 22.607c.654 0 2.293-.521 2.293.73 0 1.422-1.525 1.946-2.606 2.396-1.298.538-.729 1.217-2.499 1.249-.997.018-1.118 1.25-2.293 1.25-1.845 0-3.77-.417-5.626-.417-4.802 0-11.402.97-13.859 1.459-.407 0-3.81-1.101-4.477-1.25-1.815-.407-3.572-.833-5.418-.833-1.43 0-2.847.312-4.275.312-1.766 0-5.624-3.241-5.624-4.272 0-.24-.003-.414.105-.624.465-.237.781-.624 1.353-.624 1.731 0 2.192 2.08 3.023 2.08.536 0 1.115-.204 1.667-.204 1.681 0 2.135 1.039 2.811 1.039.643 0 .626-.834 2.084-.834 1.32 0 1.57.635 2.606 1.149.482-.245 1.011-.521 1.562-.521.888 0 1.3.684 1.873 1.247 1.34 0 1.36-.833 2.4-.833 1.605 0 1.95 1.146 2.916 1.146.343-.33 1.39-.834 1.876-.834.911 0 1.252.94 2.187.94.986 0 1.166-1.252 1.98-1.252.362 0 1.141.833 2.188.833 1.19 0 1.007-1.561 1.77-1.561 1.022 0 1.546.314 1.978.314.205 0 .347-.018.523-.107.383-.5.945-1.354 1.667-1.354.741 0 1.961.628 2.394.628.53 0 1.641-1.876 3.127-1.876.356 0 1.54.624 2.294.624zM83.354 62.406c-1.029-1.676-1.218-1.62-2.607-2.814-.4-.345-.855-.788-1.247-1.145-2.209-2.014-4.8-3.971-5.836-6.877-.185-.526-.418-1.087-.418-1.667 0-.85-.104-1.25.94-1.25 1.466 0 1.916 1.245 2.706 2.189.74.873.877.598 1.253 1.667.456 1.298.443 3.239 1.355 3.957 1.144.906 2.087 2.025 3.124 3.023.424.407.857.567 1.251 1.043.142.17.27.457.416.624.5.557 3.298 1.893 3.957 1.563-.002-.512-1.105-1.27-1.457-1.563-.85-.71-1.462-1.59-2.084-2.5-1.934-2.844-3.97-5.641-5.832-8.545-.329-.511-.695-1.007-.94-1.56l-1.145-2.606c-.102-.235-.21-.576-.21-.833 0-.171.134-.221.312-.21.245.173.473.269.733.417.158.204.54.459.52.729.76 1.148 1.797 1.819 2.71 2.815 1.756 1.922 3.473 4.065 5.206 6.042 2.948 3.357 6.081 6.775 9.273 9.896 4.864 4.754 11.5 10.612 12.503 17.712.1.7.208 1.476.208 2.187 0 4.166-2.302 8.084-6.459 9.274-1.018.29-1.773.369-1.773 1.562 0 6.629 6.342 12.158 12.608 12.919 1.25.152 2.491.417 3.75.417 1.551 0 3.345.034 4.898-.105 1.258-.113 2.364-.312 3.646-.312 1.408 0 2.65.208 3.753.208.205 0 .402-.133.621-.104 2.25.285 4.591 1.147 6.877 1.147 3.645 0 6.367-.388 9.376-2.502 2.694-1.892 5.21-7.407 5.21-10.833 0-1.287-.317-1.306-1.458-1.668-2.04-.647-4.516-3.164-5.52-5.002-.998-1.816-1.043-3.378-1.043-5.417 0-7.745 9.261-14.733 15.001-19.274 1.894-1.497 5.256-3.486 6.67-5 1.323-1.422 2.694-2.604 4.164-3.858.867-.733 1.878-1.531 2.61-2.393.413-.496.72-1.075 1.144-1.563.615-.712 1.46-1.364 2.08-2.085.195-.223.828-1.253 1.044-1.043-.009 4.175-4.748 9.486-7.71 12.088-1 .879-1.938 1.882-3.125 2.499-.272.142-1.773.666-1.77 1.043.125.09.357.209.521.209 1.137 0 2.966-1.46 3.437-1.46.305 0 .575.402.73.627.142.08.244.206.42.206.353 0 2.15-1.667 2.395-1.874.768-.662 3.122-2.517 3.122-3.75 0-2.03-.064-2.263 1.563-3.542.303-.241 1.442-1.355 1.771-1.355.34 0 .52.313.52.625 0 .23-2.304 4.403-2.605 5.105-.783 1.83-1.619 3.542-3.332 4.688-.59.393-1.843 1.067-2.19 1.77l.107.105c.483-.11 1.591-1.042 1.978-1.354.97-.773 3.933-2.292 5.21-2.292.875 0 1.666.278 1.666 1.249 0 3.028-5.763 5.914-8.022 7.503-.134.092-6.386 4.225-6.459 4.375l.211.21c.69 0 9.808-5.525 12.916-5.525.574 0 .627.462.627.94 0 3.705-3.616 6.446-6.775 7.708l-3.648 1.46c-1.564.625-3.093 1.363-4.684 1.875-.502.16-1.079.29-1.253.834 3.2-1.283 9.284-3.753 12.61-3.753.528 0 2.915.187 2.915 1.044 0 2.108-4.048 5.032-5.624 6.043-2.377 1.516-5.323 2.4-8.127 2.499-.402.014-1.252-.211-1.252.417 0 .338.354.416.625.416 2.29 0 4.53-.936 6.877-.936.726 0 2.605.199 2.605 1.248 0 2.234-9.376 4.106-9.376 4.483 0 .169.113.41.31.414.095-.133 3.43-.624 4.063-.624 1.09 0 2.813.528 2.813 1.875 0 2.212-5.85 2.336-6.98 3.752 0 .913 2.191 1.56 2.191 2.812 0 2.045-3.128.488-3.128 2.605 0 .588.183 4.167-1.04 4.167-.613 0-.995-.521-1.46-.521-.472 0-.52.212-.52.624 0 .628-.494 3.25-.939 3.543-1.422.03-2.74-1.147-3.646-1.147-.396 0-.315.446-.315.73 0 .929-.647 3.23-1.87 3.23-.569 0-.963-.41-1.462-.627-.397-.018-1.354 3.336-2.919 3.336-1.019 0-1.96-1.46-2.708-1.46-.656 0-1.455 2.187-3.02 2.187-1.58 0-1.739-1.25-2.396-1.25-.553 0-1.495 2.502-2.607 2.502-.793 0-1.255-.596-1.98-.833-.709.228-1.262 1.042-2.08 1.042-.493 0-1.032-.412-1.46-.623-.73.48-1.195 1.247-2.188 1.247-.805 0-1.217-1.042-1.667-1.042-.307 0-1.756.939-2.085.939-.849 0-1.49-.94-1.978-.94-.552 0-1.57 1.253-2.395 1.253-1.054 0-1.168-1.667-1.878-1.667-.015 0-1.634.556-1.769.624-1.66 0-1.33-1.457-2.189-1.875-.44.006-1.177.939-1.977.939-.934 0-1.355-1.155-1.565-1.876l-.31-.418c-.94.47-1.172 1.355-2.398 1.355-1.92 0-2.76-2.935-3.23-2.92-1.294.458-1.38 1.565-3.438 1.565-1.836 0-1.929-2.87-2.189-3.124-.749.149-1.556.624-2.29.624-2.034 0-1.02-4.063-1.876-4.063-.623 0-1.219.312-1.875.312-1.218 0-1.77-.447-1.77-1.666 0-.717.414-1.426.414-2.085 0-.238-.105-.208-.31-.208-.894 0-3.44.299-3.44-1.25 0-1.212 1.98-3.32 1.98-3.961-.398.02-.757.21-1.147.21-.992 0-2.29-.747-2.29-1.875 0-1.41 2.203-2.936 2.5-3.542.002-.276-.522-.207-.522-.207-1.152 0-5.208-.692-5.208-2.188 0-1.594 5.482-1.5 6.667-1.772-.899-.152-1.88-.14-2.814-.21-2.534-.187-4.693-.236-6.873-1.665-.68-.445-2.188-1.69-2.188-2.606 0-1.334 2.256-1.247 3.124-1.247.92 0 1.913-.21 2.812-.21 1.985 0 3.86.276 5.836.522.193.022.728.15.728-.105 0-.305-.364-.481-.625-.522-1.843-.287-3.65-.633-5.522-.834-5.726-.608-4.562 1.18-8.648-3.541-.68-.786-3.126-3.537-3.126-4.584 0-.717.786-.834 1.354-.834.35 0 5.703.629 6.461.834 1.1.299 1.881.707 2.917 1.249 1.692.886 3.49 1.553 5.313 2.085l2.5.728c.071 0 .16-.058.211-.104-.007-.331-.623-.364-.835-.415-1.13-.281-2.27-.783-3.333-1.252-.897-.396-1.8-.852-2.709-1.25-.713-.311-1.484-.512-2.189-.835-2.824-1.29-5.67-3.241-7.398-5.832-.814-1.227-2.292-1.981-2.292-3.856 0-1.097 1.543-1.562 2.4-1.562 1.427 0 3.322 1.91 4.477 2.71.603.413 3.984 2.892 4.376 2.499-1-.998-3.733-2.625-4.999-3.543-1.73-1.25-6.043-5.176-6.043-7.5 0-.521.252-1.041.83-1.041 2.564 0 5.492.496 7.714 1.874.431.269.884.63 1.353.834zM62.83 43.026c-.559 0-1.043-3.18-1.043-3.854 0-.443.08-3.854.832-3.854.673 0 1.46 3.239 1.46 3.854 0 .799-.248 1.517-.416 2.292-.113.517-.063 1.563-.833 1.563zm1.25-1.042c0-.744.422-3.124 1.458-3.124 1.1 0 .83 1.82.83 2.397 0 .259.187.565.212.834.054.567-.029 1.195.105 1.768-.132.594-.187 2.295-1.043 2.295-1.265 0-1.135-1.34-1.25-2.19-.092-.671-.313-1.3-.313-1.98zm4.166 6.879c-.982 0-1.248-2.281-1.248-2.918 0-.822.008-2.813 1.248-2.813.731 0 1.042 2.032 1.042 2.603 0 .697-.078 3.128-1.042 3.128zm3.648 2.707c.002.197-.25.208-.417.208-.259 0-.476-.24-.625-.416-.955-1.116-.73-1.194-.73-2.708 0-.511-.104-1.072-.104-1.563 0-.457.605-.937 1.04-.937.947 0 .808 1.752 1.356 2.29 0 .093-.259 1.679-.209 2.086.195.386-.16.687-.31 1.04zm-16.15-5.001c0-.804.535-2.917 1.46-2.917.511 0 .521.546.521.938 0 .22-.006.422-.104.625 0 .659-.274 2.499-1.043 2.499-.633 0-.834-.6-.834-1.145zm2.814.209c1.027 0 1.043 1.86 1.043 2.604 0 1.027-.216 1.77-.728 2.605-.048.072-.197.31-.315.31-.363-.15-.49-.367-.625-.727-.392-.458-.187-1.25-.627-1.667-.06-.657.298-3.125 1.252-3.125zm3.23 6.563c.097.205 0 .507 0 .73 0 .475-.037 1.563-.73 1.563-1.019 0-1.146-3-1.146-3.647 0-.582.244-2.19 1.04-2.19.99 0 .715 1.92.731 2.5.011.346.106.69.104 1.044zm.727 2.81c-.004-.888-.208-1.624-.208-2.602 0-.388.212-1.145.73-1.145.877 0 1.042 2.634 1.042 3.334 0 .457-.162 1.979-.832 1.979-.278 0-.598-1.325-.732-1.565zm3.127-.623c.481 0 1.145 1.926 1.145 2.397 0 .53-.01 2.71-.832 2.71-1.137 0-1.25-2.72-1.25-3.44 0-.554.187-1.667.937-1.667zm1.98 2.919c1.353 0 1.022.694 1.46 1.564v1.457c0 .379-.586 1.25-1.043 1.25-.587 0-1.04-1.758-1.04-2.186 0-.385.165-.866.207-1.252.04-.355-.124-.833.415-.833zm1.666 5.208c0-.627.313-1.071.313-1.457 0-.138-.104-.27-.104-.42 0-.28.566-.8.834-.935.685 0 .562 1.064.727 1.563.185.18.261.416.42.625-.146.719-.105.326-.105 1.457l.207.419c-.042.138-.448.833-.626.833-1.03 0-1.338-1.43-1.666-2.085zM54.7 53.549c0-.237.288-1.04.523-1.04.254 0 .546.3.626.519.083.225.195.526.314.73.358.64 1.978 1.765 1.978 2.605a.53.53 0 0 1-.52.52c-1.667 0-2.327-1.212-2.71-2.604-.063-.236-.21-.46-.21-.73zm4.901 5.94c0-.215.041-.522.311-.522.796 0 .863.909 1.355 1.355.41.372 1.096.724 1.563 1.043.46.312.871.84 1.25 1.248 1.964 2.128 2.325 2.158 4.791 3.543.388.217 1.85 1.034 1.981 1.46.193.63.333 1.319.728 1.874.047.469.208.992.208 1.46 0 .396-.296.52-.623.52-1.26 0-3.043-1.628-4.167-2.086-.32-.95-2.012-2.38-2.816-3.02-.259-.205-.673-.953-.833-1.251-.49-.905-1.266-1.574-1.976-2.291-.808-.81-.813-1.744-1.045-1.98-.588-.587-.727-.522-.727-1.353zm-1.565.415c.583 0 .837.648.837 1.146 0 .636.005 1.563-.837 1.563-.635 0-.73-.741-.73-1.248 0-.2-.076-.694.212-.833.1-.206.25-.628.518-.628zm11.461 13.338c0-.42.097-.94.625-.94.378 0 .762.365.832.94l.104.832.107.626c0 .284-.354.52-.732.52-.283 0-.519-.141-.519-.52l-.208-.626zm-2.499-1.67s.016-.226.208-.414c.093-.285.33-.42.52-.42.377 0 .728.693.728 1.356 0 .662-.246 1.148-.623 1.148-.285 0-.356-.071-.625-.836-.18-.502-.208-.72-.208-.834zm-1.875-3.437c.38 0 .528.399.624 1.249 0 .285.104.437.104.627 0 .189.104.332.104.522 0 .377-.247.52-.626.52-.473 0-.83-.835-.83-1.875 0-.57.245-1.043.624-1.043zm-2.71-2.292c.093 0 .218.125.313.313.095.286.104.644.104.834 0 .472-.122.833-.315.833-.093 0-.226-.02-.415-.207-.248-.373-.313-.612-.313-1.043 0-.192.114-.332.207-.521.192-.096.323-.21.42-.21zm-1.666-3.437c.377.569.52.966.52 1.249 0 .284-.028.578-.315 1.146-.092.379-.329.52-.518.52a.977.977 0 0 1-.728-.414c-.38-.285-.316-.465-.316-.94 0-1.231.265-2.083.836-2.083zM72.62 80.95c0 .365-.465.417-.726.417-2.216 0-4.369-2.023-5.73-3.545-1.429-1.588-3.189-2.186-3.96-4.165-.222-.572-2.603-.78-2.603-2.708 0-.572.251-1.46.937-1.46.684 0 1.992 1.608 2.71 2.082 3.28 2.187 5.741 4.553 8.23 7.503.327.388 1.142 1.346 1.142 1.876zm2.4 6.666c-.559 0-1.253-1.42-1.253-1.875 0-.31.466-1.042.833-1.042.773 0 1.021 1.103 1.148 1.669-.09.49-.113 1.248-.729 1.248zm-3.126-3.124c0-.627-.1-.73.52-.73.37 0 .626.744.626 1.04 0 .43-.15 1.045-.626 1.045-.689-.345-.606-.663-.52-1.355zm-2.084-.94c0-.092-.01-.255-.104-.726 0-.515.038-.834.625-.834.57 0 .737.397.834 1.25 0 .567.27 1.667-.627 1.667-.095 0-.322-.123-.416-.312-.432-.29-.312-.575-.312-1.044zm-2.189-2.081c0-.384.23-.625.418-.625.094 0 .334.238.521.52.352.534.311.82.311 1.46 0 .439.06 1.248-.625 1.248-.378 0-.729-.471-.729-1.04l.104-1.042zm-.729-.312c0 .365.021 1.04-.524 1.04-.282 0-.54-.261-.83-.728-.179-.287-.209-.57-.209-1.043 0-.852.153-1.354.626-1.354.188.283.236.244.522.624l.31.627zm-2.813-3.337c.19 0 .228.238.42.522.093.192.206.446.206.73 0 .854-.34 1.457-.626 1.457-.378 0-.624-.584-.624-1.25 0-.946.246-1.46.624-1.46zm3.231 10.212c-.639-.6-1.772-1.076-1.772-2.085 0-.586.054-.935.73-.935.801 0 1.705.779 2.5 1.042.724.237 1.6.415 2.29.727.71.322 1.408.874 2.084 1.25.347.194 6.358 3.249 6.358 4.792 0 .936-.986 1.25-1.773 1.25-1.805 0-8.494-4.056-8.856-5.208-.629-.631-.625-.621-1.56-.833zm15.521 10.627c0-.586.123-1.145.834-1.145.708 0 .938.97.938 1.56 0 .595-.12 1.562-.938 1.562-.544 0-.834-.677-.834-1.145zm-1.976-1.876c.704 0 1.146 1.308 1.146 1.876 0 .523-.697 1.457-1.254 1.457-.624 0-.833-.734-.833-1.25 0-.79-.089-2.083.941-2.083zm-3.649.314c0-.387.521-1.147.94-1.147.943 0 1.04 1.42 1.04 2.084 0 .577-.083 1.457-.834 1.457-.933 0-.827-.82-.938-1.457-.023-.152-.208-.83-.208-.937zm-2.084-2.397c1.137 0 1.25 1.17 1.25 2.083 0 1.138-.378 1.563-1.04 1.563-.666 0-1.045-1.07-1.045-2.396 0-.76.36-1.157.835-1.25zm-2.708-1.877c.801 0 1.043 1.038 1.043 1.67 0 1.526-.378 2.29-1.043 2.29-.663 0-.937-.758-.937-2.083 0-1.233.274-1.877.937-1.877zm-2.396-1.46c.436.235.936.729.936 1.253 0 .582-.31 1.188-.31 1.772 0 .486-.018 1.039-.626 1.039-1.034 0-1.04-1.218-1.04-1.977 0-.575.24-2.084 1.04-2.086zm7.396 10.423c0 .656-.489 1.247-1.145 1.247-.865 0-4.792-1.988-4.792-2.81 0-.256.443-.777.625-.94.18-.06.332-.104.518-.104.53 0 2.782.464 3.025.937.53.507 1.77.85 1.77 1.67zm23.754 20.313c.9 0 1.801 1.055 2.293 1.773-.012 1.559-2.175 1.562-3.229 1.562-.736 0-1.773-.587-1.773-1.46 0-.574 1.98-1.875 2.71-1.875zm-20.42 6.668c0-1.555 4.206-1.875 5.21-1.875 1.195 0 4.566.68 5.522 1.25.507.303 1.156.834 1.773.834.527 0 .517-.41.517-.833 0-.27-.206-.531-.206-.832 0-.792 1.193-.836 1.77-.836.55 0 3.235 1.2 3.854 1.562 1.96 1.148 6.044 4.776 6.044 7.399 0 2.566-5.777 3.646-7.813 3.646-4.195 0-6.945-.121-10.21-2.813-.574-.475-2.099-1.75-2.502-2.396-.082-.134-.21-.411-.312-.521-.239-.265-.562-.386-.833-.625-.337-.296-.646-.704-.938-1.042-.57-.673-1.877-1.932-1.877-2.918zm7.607-5.833c.142-.265.455-.52.832-.52.665 0 1.252.576 1.252 1.145 0 .567-.595.935-1.356.935-.759 0-1.04-.263-1.04-.833 0-.354.128-.39.312-.727zm7.498-3.75c.314 0 1.632-.972 1.981-1.044.501-.102.833.346.833.834v.21c-1.012 1.424-1.607 4.269-4.167 4.269-1.358 0-1.456-2.094-1.459-3.021v-1.77c0-.415.13-.943.212-1.354l.311-.418c.008-.217-.053-.521-.31-.521-.742 0-2.458 1.759-3.13 2.085-.378.184-2.956 1.97-3.438 2.084-1.049.245-1.873.522-2.5.522-.853 0-.832-1.606-.832-2.19 0-.602.311-1.927.311-3.023 0-.203.03-.311-.207-.311-.387 0-.814.104-1.252.104-1.176 0-2.367-.314-3.539-.314-.837 0-.94.004-.94-.832 0-1.806.676-3.958 2.814-3.958 1.188 0 .81 1.25 1.665 1.25.681 0 2.725-1.98 5.628-1.98 2.45 0 1.667 2.405 2.5 3.646.532.797 2.19.73 3.125 1.042l.623.729c.073.21.298.412.314.624.071.875.184 3.337 1.457 3.337zm-18.228-10.42c-.815 0-3.025.234-3.025-1.041 0-.846.696-.934 1.358-1.353l2.08-1.461c.656-.416 2.754-.344 3.753-.832.185-.092.951-.55 1.145-.523.375.06.775.174 1.148.21.525.05 1.456-.227 1.456.625 0 .439-.578.89-.52 1.04.111.302.52.709.52 1.044 0 1.275-3.129 1.539-3.959 1.77-.34.094-1.438.417-1.667.417-.368 0-.806-.12-1.145-.104-.4.019-.746.208-1.144.208zm2.812 23.754c.494.433.73.513.73 1.043 0 .377-.134.52-.42.52-.284 0-.699-.287-1.457-1.041-.379-.38-.623-.663-.623-1.042 0-.284.12-.522.312-.522.284 0 .525.242.73.417zm-4.065 1.667c-.96-.737-1.624-1.798-2.29-2.918-.459-.763-.697-1.195-.836-1.354-.434-.51-.728-.851-.728-1.044 0-.375.24-.52.522-.52.284 0 .554.107.834.21 1.23.457 1.422.637 2.811 2.917.398.65.856 1.206 1.25 1.667l1.147 1.252c.435.507.832 1.182.832 1.56 0 .192-.13.314-.414.314-.285 0-.496-.097-1.462-.833zm-2.812.936l-1.146-1.248-.834-1.146c-.179-.292-.542-.713-1.042-1.251-.82-.882-1.04-1.286-1.04-1.667 0-.282.15-.625.624-.625.188 0 .435.115.626.207.377.19.766.448 1.146.73.376.286.635.426.726.522l.94 1.457.625.627c.19.094.247.232.415.52.386.647.665 1.164 1.045 1.353l.624.419c.946.568 1.458 1.399 1.458 1.876 0 .283-.269.31-.835.31-.375 0-.668-.098-.934-.31l-.939-.732zm.938 1.774c.27.347.266.585.315 1.042a.85.85 0 0 1-.526.208c-.832 0-3.5-2.06-4.165-2.71-.63-.617-3.754-4.728-3.754-5.313 0-.371.26-.731.63-.731.562 0 .964.623 1.248 1.043.534.795 1.106 1.003 1.772 1.666.875.88 1.157 1.57 2.187 2.295.401.279.78.628 1.041 1.04.326.513.754 1.085 1.252 1.46zm-6.98-3.543c0 .096.161.319.521.624.302.259.516.702.832 1.252.344.592.477.628.835.935.401.352.625.749.625.94 0 .284-.134.415-.417.415-.284 0-.54-.166-.937-.522-.455-.395-.75-.641-.938-.833l-1.459-.935c-.189-.096-.604-.452-1.146-1.043-.588-.641-.946-1.051-1.042-1.145l-.52-.73c-.192-.38-.459-.656-.729-1.043-.196-.276-.313-.642-.313-.833 0-.284.018-.521.207-.521 1.232 0 2.07.383 2.814 1.354.204.27.217.532.313.626l.623.207.42.627zm-6.46-.521c-.25-.252-.832-1.213-.832-1.564 0-.567.346-1.041.726-1.041.793 0 1.38 1.123 1.878 1.667.301.329.663.692.938 1.042.21.268.25.353.311.417.146.144.121.25.42.415.367.209.737.575.935 1.042.24.568.22.447.834 1.147l.417.729c.124.166.313.57.313.833 0 .284-.248.419-.63.419-.81 0-1.06-.692-1.558-1.252-.47-.525-2.064-1.415-2.295-1.876l-.728-1.042zm-2.917-.521c0-.44.302-.827.732-.834.546-.007.89.637 1.248 1.042.176.2.56.485 1.04 1.043 1.42 1.635 2.086 2.68 2.086 3.435 0 .572-.268.94-.834.94-.854 0-1.808-.82-2.707-2.708-.244-.504-.594-.956-.939-1.461-.51-.738-.626-1.08-.626-1.457zm17.711-19.9c0 .38-.083.647-.104.835-.129 1.152-.417 2.697-.417 3.853 0 1.57 1.83 1.405 2.917 1.356 1.238-.058.862-.103 1.875-.103l.314 7.083c-1.61 0-2.195.057-4.377.625-1.799-.854-3.315-1.25-5.208-1.25-1.61 0-2.7.416-4.688 1.459-1.519-.475-2.103-.626-3.334-.626-4.452 0-8.13 3.227-8.13 7.398 0 5.116 5.568 8.856 13.34 8.856 2.46 0 7.214-.623 10.627-1.46.977-.241 4.73-1.458 5.518-1.458.633 0 1.441.565 1.978.832 1.913.952 5.292 2.029 7.296 2.292.855.114 1.781.107 2.918.107 2.464 0 4.497-.222 6.771-.731 2.392-.535 3.925-1.273 6.564-2.708.486-.266.758-.312 1.042-.312.187 0 .453.038.936.312.186.102.566.375 1.15.624 3.172 1.357 6.255 1.979 9.687 1.979 3.41 0 6.78-.653 10.003-1.98 3.22 1.705 8.75 3.02 12.916 3.02 3.697 0 8.07-.99 11.671-2.603 3.34 1.162 6.836 2.399 10.416 2.399 2.848 0 7.993-1.28 10.835-2.607 2.114 1.058 4.356 1.809 6.668 2.294 1.325.273 2.745.416 4.167.416 7.4 0 12.192-3.664 12.192-9.065 0-5.116-5.445-9.375-11.982-9.375-2.652 0-4.77.278-6.67 1.144-.384.178-.644.418-.83.418-.285 0-.664-.23-1.045-.418-1.799-.663-2.496-.818-4.583-1.042-1.465-.156-3.01-.348-4.477-.102l-.314-4.274c.568.097 1.751.113 2.604.21.663 0 1.156.209 1.77.209.76 0 1.25-.598 1.25-1.355 0-1.198-.243-2.574-.414-3.751-.154-1.05-.222-1.581-.314-1.771v-.52c.19-.095.426-.21.521-.21 1.422-.473 2.313-.88 3.438-1.562 1.062-.645 1.46-.957 1.46-1.145 0-.192-.136-.455-.419-.834-.515-.517-.825-1.141-1.354-1.668-.472-.57-.627-.756-.627-1.04 0-.401 1.224-1.344 1.358-1.46 1.307-1.144 3.01-3.371 3.957-4.791.38-.572.521-.98.521-1.354 0-.38.058-.522-.416-.522-.664-.096-1.04-.362-1.04-.833 0-.38.134-.694.521-1.251.265-.387.576-.76.935-1.25 1.253-1.718 5.94-8.547 5.94-10.732-.333 0-1.459-.12-1.459-.52 0-.188.113-.33.207-.522 3.22-5.21 5.73-11.335 5.73-14.272 0-.64-.977-.108-1.249 0 4.356-6.633 6.297-12.36 6.771-19.275l-1.043-.207c0-1.262.361-2.614.521-3.856.465-3.533.625-5.814.625-7.71 0-1.042.086-1.56-.103-2.605a3.055 3.055 0 0 1-.728.105c-.663 0-.938-.247-.938-.623 0-.286.023-.493.312-1.253 1.794-4.74 2.71-9.827 2.71-14.378 0-4.357-.635-8.076-1.98-11.668-.074-.197-.115-.311-.209-.311-.226 0-.457.596-.52.73-1.544 3.164-3.513 7.247-6.148 12.083-2.474 4.54-4.386 7.674-5.52 9.379l-4.169 6.25c-2.389 3.585-2.984 4.376-3.646 4.376-.474 0-1.22-.76-1.98-2.085-.567 1.706-.95 2.505-1.665 3.855-1.752 3.304-4.574 7.22-7.815 10.523-1.977 2.013-4.29 4.265-7.815 7.083l-3.646 2.919c-.843.674-2.257 1.936-4.168 3.542-.329.279-3.634 3.332-4.376 3.332-.759 0-1.186-1.733-1.353-2.29l-4.478-15.003c-.157-.52-.21-.775-.21-1.04 0-.38.288-.678 1.044-1.252l22.71-17.294c.881-.673 1.83-1.514 1.83-1.514H137.84c-.675 0-1.096-.047-1.356-.207-.217-.14-.395-.345-.522-.73l-9.27-28.7c-.127-.39-.314-.833-.314-.833l-.224.833-8.64 27.737c-.319 1.008-.416 1.444-.73 1.666-.36.254-1.282.209-1.669.209H84.328s1.195.913 1.63 1.225l22.92 16.462c.932.67 1.355.787 1.355 1.666 0 .232-.26 1.015-.52 1.876l-4.378 14.587c-.225.755-.648 2.396-1.666 2.396-.41 0-.984-.658-2.5-2.084-3.333-3.13-11.293-11.09-16.25-16.462-5.275-5.712-9.592-11.02-10.734-13.023-.378-.663-.558-.833-.939-.833-.449 0-1.085.312-1.562.312-.568 0-.85-.312-1.77-1.563-3.067-4.166-4.628-6.652-6.25-9.48-.553-.955-1.865-3.264-3.752-6.877-1.648-3.151-3.402-6.28-4.48-9.687-.299-.946-.538-1.251-.732-1.251-.282 0-.897 1.032-1.56 3.126-1.235 3.898-1.876 8.145-1.876 11.46 0 2.749.327 4.677 1.67 8.854.364 1.142.414 1.489.414 1.773 0 .567-.15.857-.625.833-.633-.036-.614-.38-1.042-.105-.076.052-.206.247-.206.626 0 1.346-.21 2.806-.21 4.165 0 4.753 3.127 10.584 3.127 10.734 0 .473-.304.568-1.252 1.04-.207 0-1.298.5-1.25.728.84 4.317 3.64 10.195 5.628 13.13.296.44 2.394 2.444 2.394 3.543 0 .47-.966 1.077-2.187 1.354-.85.192-1.147.463-1.147.937 0 .19.112.456.21.832.991 2.386 2.108 4.619 3.54 6.773.573.86 3.543 4.563 3.543 5.106 0 .659-1.77.969-1.77 1.77 0 1.39 6.565 10.703 6.565 11.877 0 .758-.647 1.127-2.919 1.98.474 1.61 1.082 2.492 2.5 3.544 1.524 1.127 3.41 2.26 5.21 3.02-.707.53-1.436 1.07-2.084 1.667-.315.287-1.667 1.702-1.667 2.083 0 .377.606.74 2.082 1.563z"/></g></g></svg>